<?xml version="1.0" encoding="iso-8859-1"?>
<!-- Generator: Adobe Illustrator 17.1.0, SVG Export Plug-In . SVG Version: 6.00 Build 0)  -->
<!DOCTYPE svg PUBLIC "-//W3C//DTD SVG 1.1//EN" "http://www.w3.org/Graphics/SVG/1.1/DTD/svg11.dtd">
<svg version="1.1" id="Capa_1" xmlns="http://www.w3.org/2000/svg" xmlns:xlink="http://www.w3.org/1999/xlink" x="0px" y="0px"
	 viewBox="0 0 479 479" style="enable-background:new 0 0 479 479;" xml:space="preserve">
<g>
	<path d="M478.979,195.09c-0.007-0.132-0.01-0.265-0.024-0.395c-0.001-0.008-0.001-0.016-0.001-0.023l-16-144
		C462.532,46.874,459.322,44,455.5,44h-32c-4.142,0-7.5,3.358-7.5,7.5V52H63v-0.5c0-4.142-3.358-7.5-7.5-7.5h-32
		c-3.822,0-7.032,2.874-7.454,6.672l-16,144c-0.001,0.008-0.001,0.016-0.001,0.023c-0.014,0.13-0.017,0.263-0.024,0.395
		c-0.007,0.129-0.019,0.258-0.019,0.385c0,0.008-0.001,0.016-0.001,0.024v224c0,8.547,6.953,15.5,15.5,15.5h448
		c8.547,0,15.5-6.953,15.5-15.5v-224c0-0.008-0.001-0.016-0.001-0.024C478.998,195.348,478.986,195.219,478.979,195.09z M431,59
		h17.787l14.333,129H431V59z M383.5,228h-32c-8.547,0-15.5,6.953-15.5,15.5v0.5H143v-0.5c0-8.547-6.953-15.5-15.5-15.5h-32
		c-8.547,0-15.5,6.953-15.5,15.5v0.5h-8.5c-4.687,0-8.5-3.813-8.5-8.5V203h353v32.5c0,4.687-3.813,8.5-8.5,8.5H399v-0.5
		C399,234.953,392.047,228,383.5,228z M367.5,260c-4.142,0-7.5,3.358-7.5,7.5v8.5h-8.5c-0.257,0-0.5-0.243-0.5-0.5v-32
		c0-0.257,0.243-0.5,0.5-0.5h32c0.257,0,0.5,0.243,0.5,0.5v32c0,0.257-0.243,0.5-0.5,0.5H375v-8.5
		C375,263.358,371.642,260,367.5,260z M111.5,260c-4.142,0-7.5,3.358-7.5,7.5v8.5h-8.5c-0.257,0-0.5-0.243-0.5-0.5v-32
		c0-0.257,0.243-0.5,0.5-0.5h32c0.257,0,0.5,0.243,0.5,0.5v32c0,0.257-0.243,0.5-0.5,0.5H119v-8.5
		C119,263.358,115.642,260,111.5,260z M416,188H63V99h353V188z M416,67v17H63V67H416z M30.213,59H48v129H15.879L30.213,59z
		 M464,419.5c0,0.276-0.224,0.5-0.5,0.5h-448c-0.276,0-0.5-0.224-0.5-0.5V203h33v32.5c0,12.958,10.542,23.5,23.5,23.5H80v16.5
		c0,8.547,6.953,15.5,15.5,15.5h32c8.547,0,15.5-6.953,15.5-15.5V259h193v16.5c0,8.547,6.953,15.5,15.5,15.5h32
		c8.547,0,15.5-6.953,15.5-15.5V259h8.5c12.958,0,23.5-10.542,23.5-23.5V203h33V419.5z"/>
	<path d="M424.003,403.5c0,4.142,3.358,7.5,7.5,7.5H447.5c4.142,0,7.5-3.358,7.5-7.5s-3.358-7.5-7.5-7.5h-15.997
		C427.361,396,424.003,399.358,424.003,403.5z"/>
	<path d="M407.502,396H31.5c-4.142,0-7.5,3.358-7.5,7.5s3.358,7.5,7.5,7.5h376.002c4.142,0,7.5-3.358,7.5-7.5
		S411.645,396,407.502,396z"/>
</g>
<g>
</g>
<g>
</g>
<g>
</g>
<g>
</g>
<g>
</g>
<g>
</g>
<g>
</g>
<g>
</g>
<g>
</g>
<g>
</g>
<g>
</g>
<g>
</g>
<g>
</g>
<g>
</g>
<g>
</g>
</svg>
