<?xml version="1.0" encoding="iso-8859-1"?>
<!-- Generator: Adobe Illustrator 17.1.0, SVG Export Plug-In . SVG Version: 6.00 Build 0)  -->
<!DOCTYPE svg PUBLIC "-//W3C//DTD SVG 1.1//EN" "http://www.w3.org/Graphics/SVG/1.1/DTD/svg11.dtd">
<svg version="1.1" id="Capa_1" xmlns="http://www.w3.org/2000/svg" xmlns:xlink="http://www.w3.org/1999/xlink" x="0px" y="0px"
	 viewBox="0 0 511.077 511.077" style="enable-background:new 0 0 511.077 511.077;" xml:space="preserve">
<path d="M399.538,352h-22.422l-56.142-167.732c8.174-12.611,12.496-27.242,12.496-42.335c0-40.442-30.967-73.777-70.433-77.564V55
	h8.5c4.142,0,7.5-3.358,7.5-7.5v-24c0-12.958-10.542-23.5-23.5-23.5s-23.5,10.542-23.5,23.5v24c0,4.142,3.358,7.5,7.5,7.5h8.5v9.368
	c-39.466,3.787-70.433,37.123-70.433,77.564c0,15.104,4.325,29.714,12.499,42.326L133.96,352h-22.422c-4.142,0-7.5,3.358-7.5,7.5
	s3.358,7.5,7.5,7.5h17.401l-1.291,3.857c-2.488,7.433-2.714,15.359-0.653,22.922l15.787,57.937l-16.558,49.479
	c-1.314,3.928,0.804,8.178,4.732,9.492c0.79,0.264,1.592,0.39,2.381,0.39c3.137,0,6.061-1.983,7.111-5.122L186.948,367h137.18
	l46.5,138.955c1.05,3.139,3.975,5.122,7.111,5.122c0.789,0,1.592-0.125,2.381-0.39c3.928-1.314,6.047-5.564,4.732-9.492
	l-16.558-49.479l15.787-57.937c2.061-7.563,1.834-15.489-0.653-22.922L382.137,367h17.401c4.142,0,7.5-3.358,7.5-7.5
	S403.68,352,399.538,352z M247.038,23.5c0-4.687,3.813-8.5,8.5-8.5s8.5,3.813,8.5,8.5V40h-17V23.5z M141.468,389.835
	c-1.278-4.691-1.138-9.607,0.405-14.218l65.803-196.595c1.746-5.23,6.641-8.546,11.877-8.546c1.305,0,2.631,0.206,3.935,0.639
	c3.168,1.056,5.734,3.281,7.227,6.267c1.493,2.986,1.733,6.375,0.681,9.535l-80.043,239.191L141.468,389.835z M191.968,352
	l53.654-160.332c4.794-14.387-3.009-29.99-17.397-34.785c-11.49-3.818-23.75,0.397-30.663,9.568
	c-3.26-7.702-4.956-16.013-4.956-24.518c0-34.701,28.231-62.933,62.933-62.933s62.933,28.231,62.933,62.933
	c0,8.498-1.697,16.813-4.958,24.518c-6.915-9.173-19.175-13.387-30.666-9.566c-14.384,4.793-22.187,20.396-17.39,34.792L319.109,352
	H191.968z M369.609,389.835l-9.883,36.272l-80.041-239.182c-1.056-3.169-0.815-6.558,0.678-9.544
	c1.492-2.985,4.059-5.211,7.222-6.265c1.305-0.434,2.632-0.64,3.938-0.64c5.238,0,10.134,3.317,11.88,8.552l65.801,196.589
	C370.747,380.228,370.887,385.145,369.609,389.835z"/>
<g>
</g>
<g>
</g>
<g>
</g>
<g>
</g>
<g>
</g>
<g>
</g>
<g>
</g>
<g>
</g>
<g>
</g>
<g>
</g>
<g>
</g>
<g>
</g>
<g>
</g>
<g>
</g>
<g>
</g>
</svg>
