<?xml version="1.0" encoding="iso-8859-1"?>
<!-- Generator: Adobe Illustrator 19.0.0, SVG Export Plug-In . SVG Version: 6.00 Build 0)  -->
<svg version="1.1" id="Layer_1" xmlns="http://www.w3.org/2000/svg" xmlns:xlink="http://www.w3.org/1999/xlink" x="0px" y="0px"
	 viewBox="0 0 512.005 512.005" style="enable-background:new 0 0 512.005 512.005;" xml:space="preserve">
<g>
	<g>
		<g>
			<path d="M234.671,224.141c-11.733,0-21.333,9.6-21.333,21.333c0,11.733,9.6,21.333,21.333,21.333s21.333-9.6,21.333-21.333
				C256.005,233.741,246.405,224.141,234.671,224.141z"/>
			<path d="M85.338,224.035c-11.733,0-21.333,9.6-21.333,21.333c0,11.733,9.6,21.333,21.333,21.333s21.333-9.6,21.333-21.333
				C106.671,233.635,97.071,224.035,85.338,224.035z"/>
			<path d="M507.311,36.301c-4.693-4.587-10.56-4.373-15.36-4.267L26.778,32.141l-3.093-0.107c-5.973-0.213-13.44-0.32-18.88,4.907
				c-3.2,3.2-4.907,7.573-4.8,12.053v419.947c0,5.333,3.84,10.133,9.067,10.88c6.613,1.067,12.267-4.053,12.267-10.453v-10.667
				h469.333v10.347c0,5.333,3.84,10.133,9.067,10.88c6.613,0.96,12.267-4.16,12.267-10.56V48.995
				C512.005,46.968,512.005,40.888,507.311,36.301z M170.671,53.368h128v341.333h-128V53.368z M21.338,53.368h1.707h126.293v341.333
				h-128V53.368z M490.671,437.368H21.338v-21.333h469.333V437.368z M490.671,394.701H320.005v-64h170.667V394.701z
				 M490.671,309.368H320.005v-74.667h170.667V309.368z M490.671,213.368H320.005v-64h170.667V213.368z M490.671,128.035H320.005
				V53.368h168.96h1.707V128.035z"/>
		</g>
	</g>
</g>
<g>
</g>
<g>
</g>
<g>
</g>
<g>
</g>
<g>
</g>
<g>
</g>
<g>
</g>
<g>
</g>
<g>
</g>
<g>
</g>
<g>
</g>
<g>
</g>
<g>
</g>
<g>
</g>
<g>
</g>
</svg>
