<?xml version="1.0" encoding="iso-8859-1"?>
<!-- Generator: Adobe Illustrator 19.0.0, SVG Export Plug-In . SVG Version: 6.00 Build 0)  -->
<svg version="1.1" id="Layer_1" xmlns="http://www.w3.org/2000/svg" xmlns:xlink="http://www.w3.org/1999/xlink" x="0px" y="0px"
	 viewBox="0 0 496 496" style="enable-background:new 0 0 496 496;" xml:space="preserve">
<g>
	<g>
		<g>
			<path d="M216,280c-44.112,0-80,35.888-80,80s35.888,80,80,80s80-35.888,80-80S260.112,280,216,280z M216,424
				c-35.288,0-64-28.712-64-64c0-35.288,28.712-64,64-64c35.288,0,64,28.712,64,64C280,395.288,251.288,424,216,424z"/>
			<path d="M216,320c-22.056,0-40,17.944-40,40c0,22.056,17.944,40,40,40c22.056,0,40-17.944,40-40C256,337.944,238.056,320,216,320
				z M216,384c-13.232,0-24-10.768-24-24s10.768-24,24-24s24,10.768,24,24S229.232,384,216,384z"/>
			<path d="M416,328h-16v32h-16c0-22.872-4.624-44.672-12.944-64.56C440.888,289.776,496,231.256,496,160
				c0-74.992-61.008-136-136-136h-49.576c-6.352,0-12.24-3.152-15.768-8.44C288.16,5.816,277.296,0,265.576,0h-38.824
				c-14.544,0-27.72,9.168-32.776,22.816l-73.488,198.408l0.656,0.24C79.096,250.344,50.968,297.864,48.4,352H48
				c0,8.824-7.176,16-16,16H16v-48H0v48v8v72v16v32h416v-32v-16v-40h80v-48h-80V328z M208.984,28.368
				C211.728,20.976,218.872,16,226.76,16h38.824c6.352,0,12.24,3.152,15.768,8.44C287.84,34.184,298.704,40,310.424,40H360
				c66.168,0,120,53.832,120,120c0,64.952-51.912,117.896-116.408,119.816c-9.968-18.272-23.288-34.44-39.04-47.816H360
				c39.696,0,72-32.304,72-72s-32.304-72-72-72h-85.448c-9.616,0-18.272,5.712-22.056,14.544L232,150.36v42.448
				c-5.272-0.496-10.6-0.808-16-0.808c-26.608,0-51.696,6.384-74.072,17.44L208.984,28.368z M286.624,144
				c3.904,0,7.576,1.52,10.344,4.288l2.744,2.744c5.792,5.784,13.48,8.968,21.656,8.968C338.264,160,352,146.264,352,129.368V104h8
				c30.88,0,56,25.12,56,56s-25.12,56-56,56h-56v1.16c-16.936-10.472-35.792-18.104-56-22.024v-41.504l4.128-9.632H286.624z
				 M258.992,128l8.208-19.152c1.264-2.944,4.144-4.848,7.352-4.848H336v25.368c0,8.072-6.56,14.632-14.632,14.632
				c-3.904,0-7.576-1.52-10.344-4.288l-2.744-2.744c-5.776-5.784-13.472-8.968-21.648-8.968H258.992z M64,360
				c0-83.816,68.184-152,152-152s152,68.184,152,152v88H64V360z M16,384h16c5.856,0,11.272-1.696,16-4.448V448H16V384z M400,480H16
				v-16h32h8h328h16V480z M400,448h-16v-40h16V448z M480,376v16h-96v-16H480z"/>
			<rect x="312" y="352" width="16" height="16"/>
			<rect x="104" y="352" width="16" height="16"/>
		</g>
	</g>
</g>
<g>
</g>
<g>
</g>
<g>
</g>
<g>
</g>
<g>
</g>
<g>
</g>
<g>
</g>
<g>
</g>
<g>
</g>
<g>
</g>
<g>
</g>
<g>
</g>
<g>
</g>
<g>
</g>
<g>
</g>
</svg>
