<?xml version="1.0" encoding="iso-8859-1"?>
<!-- Generator: Adobe Illustrator 19.0.0, SVG Export Plug-In . SVG Version: 6.00 Build 0)  -->
<svg version="1.1" id="Layer_1" xmlns="http://www.w3.org/2000/svg" xmlns:xlink="http://www.w3.org/1999/xlink" x="0px" y="0px"
	 viewBox="0 0 496 496" style="enable-background:new 0 0 496 496;" xml:space="preserve">
<g>
	<g>
		<g>
			<path d="M448,376v-69.6c0-9.472-5.592-18.08-14.248-21.936L376,258.8V192h72c13.232,0,24-10.768,24-24V96
				c0-13.232-10.768-24-24-24H24v16H0v16h24v16H0v16h24v14.168l157.96,41.568L248,192v64h-16c-22.056,0-40,17.944-40,40v24h-64v-16
				c0-13.232-10.768-24-24-24H24c-13.232,0-24,10.768-24,24v120h128v-88h64v40h-48v48h352v-48H448z M112,408H16v-56h96V408z
				 M112,336H16v-32c0-4.416,3.584-8,8-8h80c4.416,0,8,3.584,8,8V336z M185.032,176L40,137.832V88h408c4.416,0,8,3.584,8,8v72
				c0,4.416-3.584,8-8,8h-88v80h-96v-80H185.032z M208,296c0-13.232,10.768-24,24-24h134.304l60.944,27.08
				c2.888,1.288,4.752,4.16,4.752,7.32V376H208V296z M480,408H160v-16h320V408z"/>
			<rect x="232" y="288" width="16" height="48"/>
			<rect x="264" y="288" width="16" height="48"/>
			<rect x="296" y="288" width="16" height="48"/>
			<rect x="328" y="288" width="16" height="48"/>
			<rect x="360" y="288" width="16" height="48"/>
		</g>
	</g>
</g>
<g>
</g>
<g>
</g>
<g>
</g>
<g>
</g>
<g>
</g>
<g>
</g>
<g>
</g>
<g>
</g>
<g>
</g>
<g>
</g>
<g>
</g>
<g>
</g>
<g>
</g>
<g>
</g>
<g>
</g>
</svg>
