<?xml version="1.0" encoding="iso-8859-1"?>
<!-- Generator: Adobe Illustrator 19.0.0, SVG Export Plug-In . SVG Version: 6.00 Build 0)  -->
<svg version="1.1" id="Layer_1" xmlns="http://www.w3.org/2000/svg" xmlns:xlink="http://www.w3.org/1999/xlink" x="0px" y="0px"
	 viewBox="0 0 512 512" style="enable-background:new 0 0 512 512;" xml:space="preserve">
<g>
	<g>
		<g>
			<path d="M351.972,104.076c-33.047-20.525-80.481-30.933-140.983-30.933c-4.661,0-8.44,3.778-8.44,8.44v101.275
				c0,4.662,3.779,8.44,8.44,8.44h180.044c4.662,0,8.44-3.778,8.44-8.44C399.473,150.618,383.047,123.376,351.972,104.076z
				 M219.429,174.418V90.096c52.612,0.935,95.237,10.677,123.638,28.318c23.025,14.301,36.385,33.534,39.037,56.004H219.429z"/>
			<path d="M503.56,343.209H143.473c-4.654,0-8.44-3.785-8.44-8.44s3.785-8.44,8.44-8.44h315.077c4.662,0,8.44-3.778,8.44-8.44
				v-36.571h36.571c4.662,0,8.44-3.778,8.44-8.44c0-4.662-3.778-8.44-8.44-8.44h-36.571v-81.582
				c0-48.019-22.293-88.933-64.47-118.32c-44.747-31.178-110.976-47.658-191.53-47.658c-91.52,0-165.978,74.457-165.978,165.978
				V317.89c0,4.662,3.779,8.44,8.44,8.44h36.571v16.879H8.44c-4.661,0-8.44,3.778-8.44,8.44c0,4.662,3.779,8.44,8.44,8.44h81.582
				v81.582c0,29.472,23.979,53.451,53.451,53.451c4.661,0,8.44-3.778,8.44-8.44c0-4.662-3.779-8.44-8.44-8.44
				c-4.654,0-8.44-3.785-8.44-8.44c0-4.654,3.785-8.44,8.44-8.44c4.661,0,8.44-3.778,8.44-8.44c0-4.662-3.779-8.44-8.44-8.44
				c-4.654,0-8.44-3.785-8.44-8.44c0-4.654,3.785-8.44,8.44-8.44c4.661,0,8.44-3.778,8.44-8.44s-3.779-8.44-8.44-8.44
				c-4.654,0-8.44-3.785-8.44-8.44c0-4.654,3.785-8.44,8.44-8.44c4.661,0,8.44-3.778,8.44-8.44c0-4.662-3.779-8.44-8.44-8.44
				c-4.654,0-8.44-3.785-8.44-8.44c0-4.654,3.785-8.44,8.44-8.44H503.56c4.662,0,8.44-3.778,8.44-8.44
				C512,346.986,508.222,343.209,503.56,343.209z M124.616,419.165c-4.017,4.482-6.462,10.401-6.462,16.879
				c0,6.478,2.445,12.397,6.462,16.879c-3.66,4.085-6.016,9.362-6.405,15.168c-6.965-6.662-11.31-16.043-11.31-26.42v-81.582h12.725
				c-0.938,2.644-1.472,5.478-1.472,8.44c0,6.478,2.445,12.397,6.462,16.879c-4.017,4.482-6.462,10.401-6.462,16.879
				C118.154,408.764,120.599,414.683,124.616,419.165z M119.626,343.209h-12.725V326.33h12.704c-0.937,2.642-1.452,5.481-1.452,8.44
				C118.154,337.731,118.687,340.564,119.626,343.209z M61.89,309.451V182.857c0-82.214,66.885-149.099,149.099-149.099
				c147.495,0,239.121,57.131,239.121,149.099v126.593H61.89z"/>
			<path d="M210.989,208.176c-4.661,0-8.44,3.778-8.44,8.44v67.516c0,4.662,3.779,8.44,8.44,8.44s8.44-3.778,8.44-8.44v-67.516
				C219.429,211.953,215.65,208.176,210.989,208.176z"/>
			<path d="M244.747,208.176c-4.661,0-8.44,3.778-8.44,8.44v67.516c0,4.662,3.779,8.44,8.44,8.44s8.44-3.778,8.44-8.44v-67.516
				C253.187,211.953,249.408,208.176,244.747,208.176z"/>
			<path d="M357.275,208.176h-45.011c-23.268,0-42.198,18.929-42.198,42.198s18.929,42.198,42.198,42.198h45.011
				c23.268,0,42.198-18.929,42.198-42.198S380.543,208.176,357.275,208.176z M357.275,275.692h-45.011
				c-13.96,0-25.319-11.359-25.319-25.319c0-13.96,11.359-25.319,25.319-25.319h45.011c13.96,0,25.319,11.359,25.319,25.319
				C382.593,264.334,371.235,275.692,357.275,275.692z"/>
		</g>
	</g>
</g>
<g>
</g>
<g>
</g>
<g>
</g>
<g>
</g>
<g>
</g>
<g>
</g>
<g>
</g>
<g>
</g>
<g>
</g>
<g>
</g>
<g>
</g>
<g>
</g>
<g>
</g>
<g>
</g>
<g>
</g>
</svg>
