<?xml version="1.0" encoding="iso-8859-1"?>
<!-- Generator: Adobe Illustrator 17.1.0, SVG Export Plug-In . SVG Version: 6.00 Build 0)  -->
<!DOCTYPE svg PUBLIC "-//W3C//DTD SVG 1.1//EN" "http://www.w3.org/Graphics/SVG/1.1/DTD/svg11.dtd">
<svg version="1.1" id="Capa_1" xmlns="http://www.w3.org/2000/svg" xmlns:xlink="http://www.w3.org/1999/xlink" x="0px" y="0px"
	 viewBox="0 0 487 487" style="enable-background:new 0 0 487 487;" xml:space="preserve">
<g>
	<path d="M484.804,394.201l-24-24.002c-1.407-1.406-3.314-2.197-5.304-2.197H415V287h8.5c4.142,0,7.5-3.358,7.5-7.5v-96v-80
		c0-35.014-28.486-63.5-63.5-63.5h-248c-0.368,0-0.727,0.036-1.081,0.087C113.009,30.354,102.686,24,90.91,24H31.5
		C14.131,24,0,38.131,0,55.5v176C0,248.869,14.131,263,31.5,263h83.449c0.007,0,0.014,0.001,0.021,0.001
		c0.004,0,0.009-0.001,0.013-0.001h24.544l7.342,47.723c3.59,23.338,23.334,40.277,46.948,40.277H208v17.001h-56.5
		c-1.989,0-3.897,0.791-5.304,2.197l-24,24.002c-2.145,2.145-2.786,5.371-1.625,8.173c1.161,2.803,3.896,4.63,6.929,4.63H376V439.5
		c0,2.508,1.253,4.85,3.34,6.24l24,16c1.255,0.837,2.706,1.26,4.161,1.26c1.213,0,2.43-0.294,3.539-0.888
		c2.438-1.305,3.961-3.847,3.961-6.612v-48.496h64.5c3.033,0,5.768-1.827,6.929-4.63
		C487.59,399.571,486.948,396.346,484.804,394.201z M367.5,55c26.743,0,48.5,21.757,48.5,48.5V176h-64.212l7.175-71.754
		c0.211-2.108-0.48-4.208-1.902-5.778C355.639,96.897,353.619,96,351.5,96H129.011l-6.308-41H367.5z M343.212,111l-1.554,15.545
		c-7.09-2.446-15.52-3.033-25.164-1.728c-1.954,0.265-3.801,0.588-5.494,0.933V111H343.212z M121.414,248L95.315,78.359
		c-0.629-4.094-4.449-6.9-8.553-6.272c-4.094,0.63-6.902,4.459-6.272,8.554L106.238,248H31.5c-9.098,0-16.5-7.402-16.5-16.5v-176
		C15,46.402,22.402,39,31.5,39h42.584l2.714,17.639c0.57,3.708,3.765,6.36,7.403,6.36c0.379,0,0.764-0.029,1.15-0.088
		c4.094-0.63,6.902-4.459,6.272-8.553L89.26,39h1.65c8.202,0,15.061,5.884,16.308,13.991L137.219,248H121.414z M131.319,111H296
		v24.5c0,2.443,1.19,4.734,3.19,6.138c2,1.404,4.559,1.746,6.857,0.916c5.796-2.093,23.181-6.255,33.88-0.459
		c0.055,0.03,0.112,0.049,0.167,0.078L336.712,176H141.319L131.319,111z M193.817,336c-16.156,0-29.666-11.59-32.123-27.559
		L143.627,191H343.5c0.003,0,0.007,0,0.01,0c0.003,0,0.007,0,0.01,0H416v81h-19.198c-10.932,0-20.917,5.535-26.711,14.805
		l-25.901,41.44c-3.034,4.856-8.265,7.755-13.991,7.755H193.817z M400,287v81.001h-9v-79.952c1.823-0.681,3.78-1.049,5.802-1.049
		H400z M376,305.651v62.351h-41v-17.377c9.005-1.368,16.978-6.538,21.91-14.429L376,305.651z M320,351v17.001h-97V351H320z
		 M400,441.486l-9-6v-28.482h9V441.486z M407.539,392.004c-0.013,0-0.026-0.002-0.039-0.002s-0.026,0.001-0.039,0.002H145.605
		l9.001-9.002h228.85c0.015,0,0.029,0.002,0.043,0.002s0.029-0.002,0.043-0.002h68.85l9.001,9.002H407.539z"/>
	<path d="M191.5,224c-4.142,0-7.5,3.358-7.5,7.5v56c0,4.142,3.358,7.5,7.5,7.5s7.5-3.358,7.5-7.5v-56
		C199,227.358,195.642,224,191.5,224z"/>
	<path d="M215.5,224c-4.142,0-7.5,3.358-7.5,7.5v56c0,4.142,3.358,7.5,7.5,7.5s7.5-3.358,7.5-7.5v-56
		C223,227.358,219.642,224,215.5,224z"/>
	<path d="M239.5,224c-4.142,0-7.5,3.358-7.5,7.5v56c0,4.142,3.358,7.5,7.5,7.5s7.5-3.358,7.5-7.5v-56
		C247,227.358,243.642,224,239.5,224z"/>
</g>
<g>
</g>
<g>
</g>
<g>
</g>
<g>
</g>
<g>
</g>
<g>
</g>
<g>
</g>
<g>
</g>
<g>
</g>
<g>
</g>
<g>
</g>
<g>
</g>
<g>
</g>
<g>
</g>
<g>
</g>
</svg>
