<svg xmlns="http://www.w3.org/2000/svg" viewBox="0 0 512 512"><rect width="512" height="512" fill="#7b519d" rx="64" ry="64"/><g fill="#fff" fill-rule="evenodd"><path d="M421.92 345.46c-12.2-9.82-25.24-18.64-38.07-27.64-25.6-17.97-49-19.37-68.1 9.55-10.7 16.23-25.72 16.94-41.42 9.82-43.27-19.7-76.68-49.9-96.25-93.9-8.66-19.5-8.55-36.9 11.7-50.7 10.73-7.3 21.54-15.9 20.67-31.8-1.12-20.77-51.47-90.06-71.35-97.38-8.23-3-16.42-2.83-24.8 0-46.6 15.66-65.92 54-47.43 99.4 55.17 135.45 152.26 229.74 285.9 287.3 7.63 3.3 16.1 4.6 20.38 5.76 30.43.3 66.07-29 76.37-58.1 9.9-28-11.04-39.1-27.6-52.44zM272.06 77.44c97.7 15.02 142.77 61.48 155.2 159.9 1.16 9.08-2.22 22.76 10.75 23 13.6.27 10.3-13.2 10.4-22.3 1.2-92.7-79.6-178.6-173.5-181.78-7.1 1.02-21.7-4.88-22.6 11-.6 10.7 11.7 8.93 19.8 10.18z"/><path d="M291.17 104.42c-9.4-1.13-21.8-5.56-24 7.48-2.3 13.7 11.54 12.3 20.42 14.3 60.3 13.47 81.3 35.44 91.3 95.3 1.4 8.73-1.5 22.3 13.3 20.06 11-1.68 7-13.32 7.9-20.12.5-57.47-48.75-109.78-109.05-117.02z"/><path d="M296.7 151.42c-6.26.15-12.42.83-14.72 7.53-3.47 10.02 3.82 12.4 11.23 13.6 24.8 3.98 37.8 18.57 40.3 43.26.7 6.7 4.9 12.2 11.4 11.4 9-1 9.8-9 9.5-16.6.5-27.7-30.9-59.8-57.6-59.1z"/></g></svg>