<?xml version="1.0" encoding="iso-8859-1"?>
<!-- Generator: Adobe Illustrator 17.1.0, SVG Export Plug-In . SVG Version: 6.00 Build 0)  -->
<!DOCTYPE svg PUBLIC "-//W3C//DTD SVG 1.1//EN" "http://www.w3.org/Graphics/SVG/1.1/DTD/svg11.dtd">
<svg version="1.1" id="Capa_1" xmlns="http://www.w3.org/2000/svg" xmlns:xlink="http://www.w3.org/1999/xlink" x="0px" y="0px"
	 viewBox="0 0 507.453 507.453" style="enable-background:new 0 0 507.453 507.453;" xml:space="preserve">
<g>
	<path d="M335.952,99.356c-3.314-3.315-8.707-3.314-12.021,0L104.727,318.559c-3.312,3.312-3.313,8.703,0,12.021l43.841,43.84
		c1.605,1.605,3.74,2.49,6.01,2.49s4.405-0.884,6.01-2.49l219.203-219.203c3.314-3.314,3.314-8.707,0-12.021L335.952,99.356z
		 M304.934,208.862L287.61,156.89l33.396-33.396l17.324,51.972L304.934,208.862z M259.68,254.116l-17.324-51.972l33.396-33.396
		l17.324,51.972L259.68,254.116z M214.425,299.371l-17.324-51.972l33.396-33.396l17.324,51.972L214.425,299.371z M169.17,344.626
		l-17.324-51.972l33.396-33.396l17.324,51.973L169.17,344.626z M119.93,324.569l20.057-20.057l17.324,51.972l-2.733,2.733
		L119.93,324.569z M350.189,163.607l-14.4-43.2l28.8,28.8L350.189,163.607z"/>
	<path d="M487.384,42.503c-16.719-21.322-40.643-34.285-67.364-36.5c-25.833-2.146-51.616,6.4-71.03,23.473
		c-0.619,0.336-1.201,0.767-1.725,1.29L78.407,299.625c-10.647,10.647-14.304,26.136-9.542,40.421l3.594,10.781L2.197,421.089
		c-2.009,2.009-2.71,4.98-1.812,7.675l22.627,67.882c0.822,2.466,2.862,4.331,5.392,4.928c0.571,0.135,1.149,0.201,1.723,0.201
		c1.966,0,3.88-0.774,5.303-2.197l92.889-92.889l10.782,3.594c4.143,1.381,8.384,2.053,12.582,2.053
		c10.277,0,20.28-4.036,27.84-11.596l192.794-192.795c8.527-8.528,19.768-12.83,30.838-11.797
		c33.814,3.146,66.076-11.477,86.283-39.122c11.99-16.402,18.381-36.856,17.998-57.595
		C507.054,78.723,499.932,58.505,487.384,42.503z M33.406,480.391l-17.324-51.972l33.396-33.397l17.324,51.973L33.406,480.391z
		 M78.66,435.136l-17.324-51.973l16.426-16.426l4.947,14.839c2.326,6.98,7.882,12.537,14.862,14.863l14.839,4.946L78.66,435.136z
		 M404.546,181.213c-15.529-1.443-31.142,4.432-42.834,16.126L168.917,390.134c-6.604,6.603-16.209,8.873-25.072,5.918
		l-41.531-13.844c-2.524-0.841-4.534-2.851-5.375-5.375l-13.844-41.531c-2.954-8.861-0.686-18.468,5.918-25.072L335.598,63.647
		l110.423,110.423C433.32,180.003,419.106,182.568,404.546,181.213z M477.33,148.176c-5.149,7.043-11.227,13.078-17.98,18.01
		L346.204,53.04l10.442-10.442c0.394-0.243,0.77-0.526,1.124-0.849c16.487-15.064,38.723-22.646,61.011-20.797
		c22.514,1.867,42.686,12.808,56.8,30.807c10.548,13.452,16.536,30.481,16.859,47.95
		C492.763,117.191,487.397,134.403,477.33,148.176z"/>
	<path d="M461.565,82.583c1.176,0,2.37-0.277,3.483-0.862c3.667-1.927,5.077-6.462,3.15-10.128
		c-2.005-3.814-4.414-7.44-7.161-10.777c-2.632-3.198-7.359-3.656-10.557-1.024c-3.198,2.632-3.656,7.359-1.024,10.557
		c2.097,2.547,3.936,5.314,5.464,8.223C456.262,81.124,458.868,82.583,461.565,82.583z"/>
	<path d="M468.24,96.097c-4.137-0.185-7.64,3.026-7.821,7.164c-0.379,8.654-3.06,17.042-7.752,24.259
		c-2.258,3.473-1.273,8.118,2.199,10.376c1.263,0.821,2.68,1.213,4.082,1.213c2.453,0,4.858-1.203,6.294-3.413
		c6.152-9.462,9.666-20.451,10.163-31.779C475.586,99.78,472.378,96.278,468.24,96.097z"/>
</g>
<g>
</g>
<g>
</g>
<g>
</g>
<g>
</g>
<g>
</g>
<g>
</g>
<g>
</g>
<g>
</g>
<g>
</g>
<g>
</g>
<g>
</g>
<g>
</g>
<g>
</g>
<g>
</g>
<g>
</g>
</svg>
