<?xml version="1.0" encoding="iso-8859-1"?>
<!-- Generator: Adobe Illustrator 18.0.0, SVG Export Plug-In . SVG Version: 6.00 Build 0)  -->
<!DOCTYPE svg PUBLIC "-//W3C//DTD SVG 1.1//EN" "http://www.w3.org/Graphics/SVG/1.1/DTD/svg11.dtd">
<svg version="1.1" id="Capa_1" xmlns="http://www.w3.org/2000/svg" xmlns:xlink="http://www.w3.org/1999/xlink" x="0px" y="0px"
	 viewBox="0 0 373 373" style="enable-background:new 0 0 373 373;" xml:space="preserve">
<g>
	<path d="M369,70.664H4c-2.209,0-4,1.791-4,4v69c0,2.209,1.791,4,4,4h292v150.672c0,2.209,1.791,4,4,4h69c2.209,0,4-1.791,4-4
		V74.664C373,72.455,371.209,70.664,369,70.664z M292,139.664v-8h-8v8h-7.706v-13.062h-8v13.062h-7.706v-8h-8v8h-7.706v-8h-8v8
		h-7.706v-8h-8v8h-7.705v-13.062h-8v13.062h-7.706v-8h-8v8h-7.706v-8h-8v8h-7.706v-8h-8v8h-7.706v-13.062h-8v13.062h-7.706v-8h-8v8
		h-7.705v-8h-8v8h-7.706v-8h-8v8h-7.706v-13.062h-8v13.062h-7.706v-8h-8v8h-7.706v-8h-8v8h-7.705v-8h-8v8H25v-13.062h-8v13.062H8
		v-61h9v12.063h8V78.664h7.706v7h8v-7h7.705v7h8v-7h7.706v7h8v-7h7.706v12.063h8V78.664h7.706v7h8v-7h7.706v7h8v-7h7.705v7h8v-7
		h7.706v12.063h8V78.664h7.706v7h8v-7h7.706v7h8v-7h7.706v7h8v-7h7.706v12.063h8V78.664h7.705v7h8v-7h7.706v7h8v-7h7.706v7h8v-7
		h7.706v12.063h8V78.664H284v7h8v-7h7.882v7h8v-7h7.706v7h8v-7h7.706v12.063h8V78.664h20.05l-61,61H292z M304,294.336V145.32l61-61
		v210.016H304z"/>
	<path d="M30.5,96.164c-6.893,0-12.5,5.607-12.5,12.5c0,6.893,5.607,12.5,12.5,12.5c6.893,0,12.5-5.607,12.5-12.5
		C43,101.771,37.393,96.164,30.5,96.164z M30.5,113.164c-2.482,0-4.5-2.019-4.5-4.5c0-2.481,2.018-4.5,4.5-4.5
		c2.481,0,4.5,2.019,4.5,4.5C35,111.146,32.981,113.164,30.5,113.164z"/>
	<path d="M349.5,110.664c-6.893,0-12.5,5.607-12.5,12.5c0,6.892,5.607,12.5,12.5,12.5c6.892,0,12.5-5.607,12.5-12.5
		C362,116.271,356.392,110.664,349.5,110.664z M349.5,127.664c-2.482,0-4.5-2.019-4.5-4.5c0-2.481,2.018-4.5,4.5-4.5
		c2.481,0,4.5,2.019,4.5,4.5C354,125.646,351.981,127.664,349.5,127.664z"/>
	<path d="M356.227,148.352h-43.453c-2.209,0-4,1.791-4,4v134.313c0,2.209,1.791,4,4,4h43.453c2.209,0,4-1.791,4-4V152.352
		C360.227,150.143,358.435,148.352,356.227,148.352z M337.75,156.352v126.313h-6.5V156.352H337.75z M316.773,156.352h6.477v126.313
		h-6.477V156.352z M352.227,282.664h-6.477V156.352h6.477V282.664z"/>
</g>
<g>
</g>
<g>
</g>
<g>
</g>
<g>
</g>
<g>
</g>
<g>
</g>
<g>
</g>
<g>
</g>
<g>
</g>
<g>
</g>
<g>
</g>
<g>
</g>
<g>
</g>
<g>
</g>
<g>
</g>
</svg>
