<?xml version="1.0" encoding="iso-8859-1"?>
<!-- Generator: Adobe Illustrator 18.0.0, SVG Export Plug-In . SVG Version: 6.00 Build 0)  -->
<!DOCTYPE svg PUBLIC "-//W3C//DTD SVG 1.1//EN" "http://www.w3.org/Graphics/SVG/1.1/DTD/svg11.dtd">
<svg version="1.1" id="Capa_1" xmlns="http://www.w3.org/2000/svg" xmlns:xlink="http://www.w3.org/1999/xlink" x="0px" y="0px"
	 viewBox="0 0 457.667 457.667" style="enable-background:new 0 0 457.667 457.667;" xml:space="preserve">
<g>
	<path d="M116.352,141.241h108.759v-38.686H116.352V141.241z M123.352,109.555h94.759v24.686h-94.759V109.555z"/>
	<path d="M348.908,102.555v38.686h108.759v-38.686H348.908z M450.667,134.241h-94.759v-24.686h94.759V134.241z"/>
	<path d="M348.908,277.929h108.759V149.746H348.908V277.929z M355.908,156.746h94.759v114.184h-94.759V156.746z"/>
	<path d="M116.352,355.111h108.759v-38.686H116.352V355.111z M123.352,323.426h94.759v24.686h-94.759V323.426z"/>
	<path d="M232.704,355.111h224.962v-70.11H232.704V355.111z M239.704,292.001h210.962v56.11H239.704V292.001z"/>
	<path d="M0,186.087h108.759v-83.531H0V186.087z M7,109.555h94.759v69.531H7V109.555z"/>
	<path d="M341.463,102.555H232.704v83.531h108.759V102.555z M334.463,179.087h-94.759v-69.531h94.759V179.087z"/>
	<path d="M341.463,194.398H232.704v83.531h108.759V194.398z M334.463,270.929h-94.759v-69.531h94.759V270.929z"/>
	<path d="M0,355.111h108.759V194.398H0V355.111z M7,201.398h94.759v146.713H7V201.398z"/>
	<path d="M116.352,309.189h108.759V148.476H116.352V309.189z M123.352,155.476h94.759v146.713h-94.759V155.476z"/>
</g>
<g>
</g>
<g>
</g>
<g>
</g>
<g>
</g>
<g>
</g>
<g>
</g>
<g>
</g>
<g>
</g>
<g>
</g>
<g>
</g>
<g>
</g>
<g>
</g>
<g>
</g>
<g>
</g>
<g>
</g>
</svg>
