<?xml version="1.0" encoding="iso-8859-1"?>
<!-- Generator: Adobe Illustrator 18.0.0, SVG Export Plug-In . SVG Version: 6.00 Build 0)  -->
<!DOCTYPE svg PUBLIC "-//W3C//DTD SVG 1.1//EN" "http://www.w3.org/Graphics/SVG/1.1/DTD/svg11.dtd">
<svg version="1.1" id="Capa_1" xmlns="http://www.w3.org/2000/svg" xmlns:xlink="http://www.w3.org/1999/xlink" x="0px" y="0px"
	 viewBox="0 0 403.052 403.052" style="enable-background:new 0 0 403.052 403.052;" xml:space="preserve">
<path d="M205.026,10.526h-7H0v382h198.026h7h198.026v-382H205.026z M396.052,17.526v68H205.026v-68H396.052z M114.813,317.526
	l-68,68h-16.1l68-68H114.813z M124.713,317.526h49.1l-68,68h-49.1L124.713,317.526z M7,310.526v-68h191.026v68H7z M56.713,85.526
	l68-68h49.1l-68,68H56.713z M46.813,85.526h-16.1l68-68h16.1L46.813,85.526z M198.026,92.526v68H7v-68H198.026z M262.356,160.526
	l68-68h49.1l-68,68H262.356z M252.456,160.526h-16.1l68-68h16.1L252.456,160.526z M226.456,160.526h-21.43v-68h89.43
	L226.456,160.526z M114.813,167.526l-68,68h-16.1l68-68H114.813z M124.713,167.526h49.1l-68,68h-49.1L124.713,167.526z
	 M183.713,167.526h14.313v68h-82.313L183.713,167.526z M88.813,167.526l-68,68H7v-68H88.813z M205.026,242.526h89.43l-68,68h-21.43
	V242.526z M304.356,242.526h16.1l-68,68h-16.1L304.356,242.526z M330.356,242.526h49.1l-68,68h-49.1L330.356,242.526z
	 M389.356,242.526h6.696v68h-74.696L389.356,242.526z M205.026,235.526v-68h191.026v68H205.026z M321.356,160.526l68-68h6.696v68
	H321.356z M198.026,85.526h-82.313l68-68h14.313V85.526z M88.813,17.526l-68,68H7v-68H88.813z M7,317.526h81.813l-68,68H7V317.526z
	 M115.713,385.526l68-68h14.313v68H115.713z M205.026,385.526v-68h191.026v68H205.026z"/>
<g>
</g>
<g>
</g>
<g>
</g>
<g>
</g>
<g>
</g>
<g>
</g>
<g>
</g>
<g>
</g>
<g>
</g>
<g>
</g>
<g>
</g>
<g>
</g>
<g>
</g>
<g>
</g>
<g>
</g>
</svg>
