<?xml version="1.0" encoding="iso-8859-1"?>
<!-- Generator: Adobe Illustrator 17.1.0, SVG Export Plug-In . SVG Version: 6.00 Build 0)  -->
<!DOCTYPE svg PUBLIC "-//W3C//DTD SVG 1.1//EN" "http://www.w3.org/Graphics/SVG/1.1/DTD/svg11.dtd">
<svg version="1.1" id="Capa_1" xmlns="http://www.w3.org/2000/svg" xmlns:xlink="http://www.w3.org/1999/xlink" x="0px" y="0px"
	 viewBox="0 0 511 511" style="enable-background:new 0 0 511 511;" xml:space="preserve">
<g>
	<path d="M303.5,337.709c17.369,0,31.5-14.131,31.5-31.5s-14.131-31.5-31.5-31.5s-31.5,14.131-31.5,31.5
		S286.131,337.709,303.5,337.709z M303.5,289.709c9.098,0,16.5,7.401,16.5,16.5c0,9.098-7.402,16.5-16.5,16.5s-16.5-7.402-16.5-16.5
		C287,297.111,294.402,289.709,303.5,289.709z"/>
	<path d="M503.5,346.709H487v-48.5c0-4.143-3.358-7.5-7.5-7.5s-7.5,3.357-7.5,7.5v48.5h-24.981l7.039-8.737
		c1.583-1.965,2.072-4.594,1.301-6.997l-3.536-11.019l5.482-10.195c1.193-2.218,1.193-4.887,0-7.104l-5.481-10.192l3.451-10.755
		h5.012c2.251,0,4.382-1.011,5.807-2.754c1.424-1.742,1.991-4.033,1.543-6.238c-7.574-37.308-27.994-71.286-57.498-95.675
		c-26.816-22.167-60.042-35.396-94.643-37.893l-9.575-25.533C322.163,112.375,335,98.763,335,82.209c0-17.369-14.131-31.5-31.5-31.5
		c-92.02,0-159.362,45.443-200.864,85.543c-4.092-3.455-9.374-5.543-15.136-5.543h-64c-12.958,0-23.5,10.542-23.5,23.5v144
		c0,12.958,10.542,23.5,23.5,23.5h64c10.336,0,19.128-6.71,22.266-16h39.065c-0.093,1.386,0.186,2.792,0.864,4.052l5.481,10.192
		l-3.536,11.019c-0.771,2.403-0.282,5.032,1.301,6.998l7.042,8.739H103.5c-4.142,0-7.5,3.357-7.5,7.5c0,4.142,3.358,7.5,7.5,7.5
		h55.583c0.421,1.299,1.183,2.482,2.253,3.396l8.8,7.508l0.705,11.549c0.153,2.518,1.563,4.791,3.75,6.047l10.032,5.761
		l2.811,11.223c0.613,2.446,2.413,4.42,4.792,5.255l10.916,3.83l4.814,10.52c1.049,2.293,3.181,3.905,5.673,4.291l11.437,1.771
		l6.664,9.461c1.453,2.063,3.837,3.256,6.369,3.177l11.571-0.366l8.301,8.07c1.81,1.759,4.385,2.49,6.848,1.945l11.302-2.5
		l9.647,6.396c2.101,1.393,4.761,1.637,7.081,0.65l10.65-4.532l10.646,4.532c0.943,0.401,1.942,0.599,2.937,0.599
		c1.453,0,2.897-0.422,4.145-1.249l9.647-6.395l11.299,2.501c2.466,0.545,5.039-0.186,6.849-1.945l8.298-8.067l11.563,0.368
		c2.533,0.08,4.917-1.114,6.37-3.177l6.663-9.459l11.434-1.767c2.492-0.386,4.625-1.998,5.674-4.291l4.815-10.519l10.917-3.828
		c2.379-0.835,4.18-2.809,4.793-5.254l2.813-11.223l10.035-5.763c2.188-1.256,3.597-3.527,3.751-6.045l0.708-11.552l8.805-7.514
		c1.072-0.915,1.833-2.102,2.254-3.402H503.5c4.142,0,7.5-3.358,7.5-7.5C511,350.067,507.642,346.709,503.5,346.709z
		 M450.82,266.709h-51.75c-7.835-18.878-21.367-35.337-38.537-46.747c-1.23-0.817-2.674-1.253-4.151-1.253H250.618
		c-1.477,0-2.921,0.436-4.151,1.253c-17.17,11.41-30.702,27.869-38.537,46.747h-51.75c8.152-30.403,25.761-57.872,50.238-78.105
		c27.221-22.502,61.699-34.895,97.082-34.895s69.861,12.392,97.082,34.895C425.059,208.837,442.668,236.307,450.82,266.709z
		 M154.614,290.709H111v-49h37.914c-4.172,9.967-7.388,20.351-9.552,31.008c-0.448,2.206,0.119,4.496,1.543,6.238
		c1.425,1.743,3.556,2.754,5.807,2.754h5.013L154.614,290.709z M156.087,226.709H111v-4.797c1.166-0.575,2.2-1.452,2.961-2.618
		c0.47-0.72,46.715-70.41,128.264-96.101l8.968,23.916c-19.702,6.477-38.181,16.581-54.333,29.933
		C180.111,190.889,166.293,207.828,156.087,226.709z M320,82.209c0,9.098-7.402,16.5-16.5,16.5c-2.759,0-5.437,0.105-8.027,0.207
		l-0.549,0.021c-2.406,0.094-4.621,1.338-5.954,3.344c-1.333,2.006-1.621,4.529-0.775,6.784l11.138,29.7
		c-11.379,0.285-22.65,1.739-33.64,4.289l-11.877-31.673c-1.366-3.643-5.287-5.635-9.038-4.591
		C176.001,125.973,129.877,174.841,111,198.252v-44.042c0-1.609-0.163-3.181-0.473-4.7c39.239-38.711,104.046-83.8,192.973-83.8
		C312.598,65.709,320,73.111,320,82.209z M87.5,306.709H79v-120.5c0-4.143-3.358-7.5-7.5-7.5s-7.5,3.357-7.5,7.5v120.5H23.5
		c-4.687,0-8.5-3.813-8.5-8.5v-144c0-4.688,3.813-8.5,8.5-8.5H64v16.5c0,4.142,3.358,7.5,7.5,7.5s7.5-3.358,7.5-7.5v-16.5h8.5
		c4.687,0,8.5,3.813,8.5,8.5v144C96,302.896,92.187,306.709,87.5,306.709z M173.88,340.049l-6.723-8.343l3.275-10.206
		c0.623-1.94,0.429-4.05-0.536-5.844l-5.082-9.448l5.082-9.451c0.965-1.794,1.158-3.904,0.536-5.844l-2.954-9.205h45.6
		c3.177,0,6.01-2.002,7.07-4.997c6.1-17.228,17.698-32.419,32.784-43.003h101.133c15.086,10.583,26.685,25.775,32.784,43.003
		c1.06,2.995,3.893,4.997,7.07,4.997h45.601l-2.955,9.208c-0.623,1.94-0.429,4.05,0.536,5.844l5.082,9.448l-5.082,9.451
		c-0.965,1.794-1.158,3.904-0.536,5.844l3.275,10.206l-6.724,8.346c-1.276,1.584-1.854,3.619-1.602,5.638l0.127,1.017H175.354
		l0.128-1.021C175.735,343.669,175.157,341.634,173.88,340.049z M424.696,363.283c-1.548,1.321-2.493,3.215-2.617,5.247
		l-0.655,10.698l-9.295,5.338c-1.767,1.015-3.045,2.705-3.54,4.681l-2.606,10.398l-10.116,3.547
		c-1.923,0.674-3.489,2.103-4.337,3.956l-4.461,9.746l-10.591,1.637c-2.013,0.311-3.813,1.428-4.986,3.093l-6.17,8.759
		l-10.705-0.341c-2.033-0.065-4.007,0.699-5.467,2.118l-7.682,7.468l-10.459-2.315c-1.986-0.439-4.068-0.053-5.765,1.072
		l-8.937,5.924l-9.867-4.2c-1.877-0.799-3.998-0.799-5.874,0l-9.872,4.2l-8.937-5.924c-1.696-1.125-3.777-1.511-5.764-1.072
		l-10.463,2.315l-7.684-7.47c-1.459-1.418-3.444-2.183-5.465-2.118l-10.712,0.338l-6.171-8.761
		c-1.173-1.665-2.972-2.782-4.985-3.093l-10.595-1.64l-4.46-9.748c-0.848-1.853-2.414-3.281-4.337-3.956l-10.115-3.549
		l-2.604-10.397c-0.495-1.977-1.773-3.667-3.54-4.682l-9.293-5.337l-0.653-10.695c-0.124-2.033-1.069-3.928-2.618-5.249
		l-1.829-1.561h246.073L424.696,363.283z"/>
</g>
<g>
</g>
<g>
</g>
<g>
</g>
<g>
</g>
<g>
</g>
<g>
</g>
<g>
</g>
<g>
</g>
<g>
</g>
<g>
</g>
<g>
</g>
<g>
</g>
<g>
</g>
<g>
</g>
<g>
</g>
</svg>
