<?xml version="1.0" encoding="iso-8859-1"?>
<!-- Generator: Adobe Illustrator 17.1.0, SVG Export Plug-In . SVG Version: 6.00 Build 0)  -->
<!DOCTYPE svg PUBLIC "-//W3C//DTD SVG 1.1//EN" "http://www.w3.org/Graphics/SVG/1.1/DTD/svg11.dtd">
<svg version="1.1" id="Capa_1" xmlns="http://www.w3.org/2000/svg" xmlns:xlink="http://www.w3.org/1999/xlink" x="0px" y="0px"
	 viewBox="0 0 447 447" style="enable-background:new 0 0 447 447;" xml:space="preserve">
<g>
	<path d="M442.37,0.571c-2.801-1.16-6.028-0.52-8.173,1.626l-63.26,63.26c-0.002,0.002-0.003,0.003-0.005,0.005
		s-0.003,0.003-0.005,0.005L252.143,184.251c-0.002,0.002-0.003,0.003-0.005,0.005s-0.003,0.003-0.005,0.005L133.349,303.045
		c-0.002,0.002-0.003,0.003-0.005,0.005s-0.003,0.003-0.005,0.005l-50.902,50.902c-0.002,0.002-0.003,0.003-0.005,0.005
		s-0.003,0.003-0.005,0.005L2.197,434.197c-2.145,2.145-2.787,5.371-1.626,8.173C1.732,445.173,4.466,447,7.5,447h432
		c4.142,0,7.5-3.358,7.5-7.5V7.5C447,4.466,445.173,1.732,442.37,0.571z M432,432H25.607l45.159-45.159l6.01,6.011
		c1.464,1.465,3.384,2.197,5.303,2.197c1.919,0,3.839-0.732,5.303-2.197c2.929-2.929,2.929-7.677,0-10.606l-6.01-6.011l6.364-6.364
		l11.667,11.667c1.464,1.464,3.384,2.197,5.303,2.197s3.839-0.732,5.303-2.197c2.929-2.929,2.929-7.678,0-10.606l-11.667-11.667
		l6.364-6.364l6.01,6.01c1.464,1.464,3.384,2.197,5.303,2.197s3.839-0.732,5.303-2.197c2.929-2.929,2.929-7.678,0-10.606l-6.01-6.01
		l6.364-6.364l6.01,6.011c1.464,1.465,3.384,2.197,5.303,2.197c1.919,0,3.839-0.732,5.303-2.197c2.929-2.929,2.929-7.677,0-10.606
		l-6.01-6.011l6.364-6.364l6.01,6.01c1.464,1.464,3.384,2.197,5.303,2.197s3.839-0.732,5.303-2.197
		c2.929-2.929,2.929-7.678,0-10.606l-6.01-6.01l6.364-6.364l11.667,11.667c1.464,1.465,3.384,2.197,5.303,2.197
		s3.839-0.732,5.303-2.197c2.929-2.929,2.929-7.678,0-10.606l-11.667-11.667l6.364-6.364l6.01,6.01
		c1.464,1.464,3.384,2.197,5.303,2.197s3.839-0.732,5.303-2.197c2.929-2.929,2.929-7.678,0-10.606l-6.01-6.01l6.364-6.364
		l6.01,6.011c1.464,1.465,3.384,2.197,5.303,2.197c1.919,0,3.839-0.732,5.303-2.197c2.929-2.929,2.929-7.677,0-10.606l-6.01-6.011
		l6.364-6.364l6.011,6.01c1.464,1.465,3.384,2.197,5.303,2.197s3.839-0.732,5.303-2.197c2.929-2.929,2.929-7.678,0-10.606
		l-6.011-6.01l6.364-6.364l11.667,11.667c1.464,1.464,3.384,2.197,5.303,2.197s3.839-0.732,5.303-2.197
		c2.929-2.929,2.929-7.678,0-10.606L234.107,223.5l6.364-6.364l6.01,6.011c1.464,1.465,3.384,2.197,5.303,2.197
		c1.919,0,3.839-0.732,5.303-2.197c2.929-2.929,2.929-7.677,0-10.606l-6.01-6.011l6.364-6.364l6.01,6.01
		c1.464,1.464,3.384,2.197,5.303,2.197s3.839-0.732,5.303-2.197c2.929-2.929,2.929-7.678,0-10.606l-6.01-6.01l6.364-6.364
		l6.011,6.01c1.464,1.465,3.384,2.197,5.303,2.197s3.839-0.732,5.303-2.197c2.929-2.929,2.929-7.678,0-10.606l-6.011-6.01
		l6.364-6.364l11.667,11.667c1.464,1.464,3.384,2.197,5.303,2.197s3.839-0.732,5.303-2.197c2.929-2.929,2.929-7.678,0-10.606
		l-11.667-11.667l6.364-6.364l6.01,6.011c1.464,1.465,3.384,2.197,5.303,2.197c1.919,0,3.839-0.732,5.303-2.197
		c2.929-2.929,2.929-7.677,0-10.606l-6.01-6.011l6.364-6.364l6.011,6.01c1.464,1.465,3.384,2.197,5.303,2.197
		s3.839-0.732,5.303-2.197c2.929-2.929,2.929-7.678,0-10.606l-6.011-6.01l6.364-6.364l6.01,6.01
		c1.464,1.464,3.384,2.197,5.303,2.197s3.839-0.732,5.303-2.197c2.929-2.929,2.929-7.678,0-10.606l-6.01-6.01l6.364-6.364
		l11.667,11.667c1.464,1.465,3.384,2.197,5.303,2.197c1.919,0,3.839-0.732,5.303-2.197c2.929-2.929,2.929-7.677,0-10.606
		l-11.667-11.667l6.364-6.364l6.01,6.01c1.464,1.464,3.384,2.197,5.303,2.197s3.839-0.732,5.303-2.197
		c2.929-2.929,2.929-7.678,0-10.606l-6.01-6.01L432,25.607V432z"/>
	<path d="M378.37,155.08c-2.8-1.16-6.028-0.52-8.173,1.626l-213.49,213.491c-2.145,2.145-2.787,5.371-1.626,8.173
		c1.161,2.803,3.896,4.63,6.929,4.63H375.5c4.142,0,7.5-3.358,7.5-7.5V162.009C383,158.976,381.173,156.241,378.37,155.08z M368,368
		H180.116L368,180.116V368z"/>
</g>
<g>
</g>
<g>
</g>
<g>
</g>
<g>
</g>
<g>
</g>
<g>
</g>
<g>
</g>
<g>
</g>
<g>
</g>
<g>
</g>
<g>
</g>
<g>
</g>
<g>
</g>
<g>
</g>
<g>
</g>
</svg>
