<?xml version="1.0" encoding="iso-8859-1"?>
<!-- Generator: Adobe Illustrator 19.0.0, SVG Export Plug-In . SVG Version: 6.00 Build 0)  -->
<svg version="1.1" id="Layer_1" xmlns="http://www.w3.org/2000/svg" xmlns:xlink="http://www.w3.org/1999/xlink" x="0px" y="0px"
	 viewBox="0 0 496 496" style="enable-background:new 0 0 496 496;" xml:space="preserve">
<g>
	<g>
		<g>
			<path d="M376,223.392c0-6.968-2.968-13.632-8.152-18.288l-33.424-30.088C306.472,149.856,270.36,136,232.744,136H184
				c-30.872,0-56,25.12-56,56s25.128,56,56,56h167.4C364.96,248,376,236.96,376,223.392z M184,152h32v8c0,4.408-3.584,8-8,8h-55.792
				C159.512,158.344,170.984,152,184,152z M144,192c0-2.736,0.28-5.416,0.808-8H208c13.232,0,24-10.768,24-24v-8h0.744
				c33.656,0,65.968,12.4,90.984,34.912L357.152,217c1.808,1.632,2.848,3.96,2.848,6.392c0,4.752-3.856,8.608-8.6,8.608H184
				C161.944,232,144,214.056,144,192z"/>
			<path d="M216,40H81.824c-23.592,0-44.792,14.936-52.736,37.168L4.2,146.872C1.416,154.648,0,162.8,0,171.08V408v8v40h304v-48h-56
				h-64v-16h256c30.872,0,56-25.12,56-56v-16C496,165.608,370.392,40,216,40z M16,336h64v-16H16V171.08
				c0-6.448,1.096-12.784,3.256-18.832l24.888-69.704C49.832,66.664,64.968,56,81.824,56H216c45.552,0,88.448,11.6,125.888,32H176
				c-61.76,0-112,50.24-112,112v16c0,59.064,45.96,107.6,104,111.72V360H80v19.72L37.576,408H16V336z M168,376v8v24H66.424
				L96,388.28V376H168z M248,424h40v16H16v-16h152H248z M480,336c0,22.056-17.944,40-40,40H184v-64h-8c-52.936,0-96-43.064-96-96
				v-16c0-52.936,43.064-96,96-96h191.512C435.464,151.808,480,230.776,480,320V336z"/>
			<rect x="296" y="280" width="96" height="16"/>
			<rect x="408" y="280" width="48" height="16"/>
			<rect x="296" y="312" width="96" height="16"/>
			<rect x="408" y="312" width="48" height="16"/>
			<rect x="296" y="344" width="96" height="16"/>
			<rect x="408" y="344" width="48" height="16"/>
		</g>
	</g>
</g>
<g>
</g>
<g>
</g>
<g>
</g>
<g>
</g>
<g>
</g>
<g>
</g>
<g>
</g>
<g>
</g>
<g>
</g>
<g>
</g>
<g>
</g>
<g>
</g>
<g>
</g>
<g>
</g>
<g>
</g>
</svg>
