<?xml version="1.0" encoding="iso-8859-1"?>
<!-- Generator: Adobe Illustrator 19.0.0, SVG Export Plug-In . SVG Version: 6.00 Build 0)  -->
<svg version="1.1" id="Layer_1" xmlns="http://www.w3.org/2000/svg" xmlns:xlink="http://www.w3.org/1999/xlink" x="0px" y="0px"
	 viewBox="0 0 496 496" style="enable-background:new 0 0 496 496;" xml:space="preserve">
<g>
	<g>
		<g>
			<path d="M0,152v16v152v176h16v-24h256v24h16V320V168v-16V0H0V152z M64,456H48V352h16V456z M96,456H80V352h16V456z M128,456h-16
				V352h16V456z M160,456h-16V352h16V456z M192,456h-16V352h16V456z M16,16h256v136h-32V32H16V16z M224,48v104h-16V48H224z M192,48
				v104h-16V48H192z M160,48v104h-16V48H160z M128,48v104h-16V48H128z M96,48v104H80V48H96z M64,48v104H48V48H64z M16,48h16v104H16
				V48z M16,168h256v136h-96V184H16V168z M160,200v104h-16V200H160z M128,200v104h-16V200H128z M96,200v104H80V200H96z M64,200v104
				H48V200H64z M16,200h16v104H16V200z M16,320h256v136h-64V336H16V320z M16,352h16v104H16V352z"/>
			<path d="M304,152v344h192V152H304z M480,480H320V320h160V480z M480,304H320V168h160V304z"/>
			<rect x="368" y="184" width="64" height="16"/>
			<rect x="368" y="336" width="64" height="16"/>
		</g>
	</g>
</g>
<g>
</g>
<g>
</g>
<g>
</g>
<g>
</g>
<g>
</g>
<g>
</g>
<g>
</g>
<g>
</g>
<g>
</g>
<g>
</g>
<g>
</g>
<g>
</g>
<g>
</g>
<g>
</g>
<g>
</g>
</svg>
