<?xml version="1.0" encoding="iso-8859-1"?>
<!-- Generator: Adobe Illustrator 19.0.0, SVG Export Plug-In . SVG Version: 6.00 Build 0)  -->
<svg version="1.1" id="Layer_1" xmlns="http://www.w3.org/2000/svg" xmlns:xlink="http://www.w3.org/1999/xlink" x="0px" y="0px"
	 viewBox="0 0 512 512" style="enable-background:new 0 0 512 512;" xml:space="preserve">
<g>
	<g>
		<g>
			<path d="M213.336,288c5.891,0,10.664-4.781,10.664-10.672v-32c0-5.89-4.773-10.672-10.664-10.672s-10.672,4.781-10.672,10.672v32
				C202.664,283.219,207.445,288,213.336,288z"/>
			<path d="M298.656,288c5.906,0,10.688-4.781,10.688-10.672v-32c0-5.89-4.781-10.672-10.688-10.672
				c-5.875,0-10.656,4.781-10.656,10.672v32C288,283.219,292.781,288,298.656,288z"/>
			<path d="M64,384h21.336C91.227,384,96,379.219,96,373.328s-4.773-10.672-10.664-10.672H64c-5.891,0-10.664,4.781-10.664,10.672
				S58.109,384,64,384z"/>
			<path d="M384,64h-21.344h-213.32H128H0v384h128h21.336h213.32H384h128V64H384z M128,426.656H21.336v-85.328H128V426.656z
				 M128,320H85.336v-42.672c0-5.89-4.781-10.672-10.672-10.672S64,271.437,64,277.328V320H53.336v-42.672
				c0-5.891-4.781-10.672-10.672-10.672S32,271.438,32,277.328V320H21.336v-64H32h85.336H128V320z M53.336,234.656v-21.328H96
				v21.328H53.336z M128,234.656h-10.664V192H32v42.656H21.336v-64H128V234.656z M53.336,133.328c0-8.672,9.766-16,21.328-16
				c11.57,0,21.336,7.328,21.336,16s-9.766,16-21.336,16C63.102,149.328,53.336,142,53.336,133.328z M128,149.328h-14.789
				c2.641-4.844,4.125-10.281,4.125-16C117.336,112.75,98.195,96,74.664,96C51.141,96,32,112.75,32,133.328
				c0,5.719,1.484,11.156,4.125,16H21.336v-64H128V149.328z M245.336,426.656h-96V85.328h96V426.656z M362.656,426.656h-95.992
				V85.328h95.992V426.656z M490.656,426.656H384v-85.328h10.656H480h10.656V426.656z M416,320v-21.344h42.656V320H416z
				 M490.656,320H480v-42.672h-85.344V320H384v-64h106.656V320z M416,218.656c0-8.672,9.781-16,21.344-16s21.313,7.328,21.313,16
				s-9.75,16-21.313,16S416,227.328,416,218.656z M490.656,234.656h-14.781c2.641-4.844,4.125-10.266,4.125-16
				c0-20.578-19.141-37.328-42.656-37.328c-23.531,0-42.688,16.75-42.688,37.328c0,5.734,1.5,11.156,4.125,16H384v-64h106.656
				V234.656z M490.656,149.328H480v-42.672c0-5.89-4.781-10.656-10.656-10.656c-5.906,0-10.672,4.766-10.672,10.656v42.672H448
				v-42.672c0-5.89-4.781-10.656-10.656-10.656c-5.906,0-10.672,4.766-10.672,10.656v42.672H384v-64h106.656V149.328z"/>
			<path d="M448,362.656h-21.344c-5.875,0-10.656,4.781-10.656,10.672S420.781,384,426.656,384H448
				c5.891,0,10.656-4.781,10.656-10.672S453.891,362.656,448,362.656z"/>
		</g>
	</g>
</g>
<g>
</g>
<g>
</g>
<g>
</g>
<g>
</g>
<g>
</g>
<g>
</g>
<g>
</g>
<g>
</g>
<g>
</g>
<g>
</g>
<g>
</g>
<g>
</g>
<g>
</g>
<g>
</g>
<g>
</g>
</svg>
