<?xml version="1.0" encoding="iso-8859-1"?>
<!-- Generator: Adobe Illustrator 19.0.0, SVG Export Plug-In . SVG Version: 6.00 Build 0)  -->
<svg version="1.1" id="Layer_1" xmlns="http://www.w3.org/2000/svg" xmlns:xlink="http://www.w3.org/1999/xlink" x="0px" y="0px"
	 viewBox="0 0 295.239 295.239" style="enable-background:new 0 0 295.239 295.239;" xml:space="preserve">
<g>
	<g>
		<g>
			<path d="M266.524,163.524c0.067,1.043,0.143,2.081,0.143,3.143s-0.076,2.1-0.143,3.143l-0.09,1.338l9.505,0.557l0.086-1.248
				c0.081-1.252,0.167-2.51,0.167-3.79c0-1.281-0.086-2.538-0.167-3.795l-0.086-1.248l-9.505,0.557L266.524,163.524z"/>
			<path d="M265.406,153.219l9.376-1.676c-7.295-40.905-42.748-70.59-84.305-70.59c-17.424,0-34.229,5.233-48.576,15.129
				l5.405,7.838c12.752-8.795,27.686-13.443,43.171-13.443C227.411,90.476,258.924,116.862,265.406,153.219z"/>
			<path d="M295.239,242.857c0-9.905-7.624-17.976-17.3-18.871c11.176-16.99,17.3-36.833,17.3-57.319
				c0-57.767-46.995-104.762-104.762-104.762c-14.833,0-29.043,3.2-41.995,8.9L67.248,6.671C61.8,2.371,54.971,0,48.024,0H45.32
				C28.211,0,14.286,13.919,14.286,31.033c0,11.905,6.943,22.9,17.69,28.019l25.167,11.981v9.919c0,7.876,6.41,14.286,14.286,14.286
				h36.543l4.181,1.99c-12.024,13.524-20.681,30.214-24.395,48.9l-0.929,4.667l18.905,3.781c-0.576,4.033-0.971,8.081-0.971,12.09
				c0,21.962,8.376,41.962,22.01,57.143H61.906V200H28.571v23.81H9.524v-9.524H0v28.571h9.524v-9.524h19.048v19.048h-9.524
				c-5.252,0-9.524,4.271-9.524,9.524v23.81H0v9.524h295.238v-9.524h-9.524v-23.81c0-0.852-0.148-1.667-0.362-2.452
				C291.214,256.2,295.239,250.024,295.239,242.857z M71.43,85.714c-2.629,0-4.762-2.138-4.762-4.762v-5.386l21.305,10.148H71.43z
				 M36.068,50.452C28.625,46.905,23.81,39.281,23.81,31.033c0-11.862,9.648-21.51,21.51-21.51h2.705
				c4.814,0,9.548,1.643,13.324,4.624l77.69,61.333c-7.167,4.057-13.795,8.976-19.814,14.567L36.068,50.452z M98.138,143.343
				c10.558-41.948,48.649-71.914,92.339-71.914c52.514,0,95.238,42.724,95.238,95.238c0,21.79-7.514,42.848-21.257,59.805
				l-53.081-47.5l-3.176,3.548c-4.529,5.057-10.99,7.957-17.724,7.957c-13.129,0-23.81-10.681-23.81-23.81
				c0-1.552,0.157-3.124,0.467-4.667l0.933-4.671L98.138,143.343z M114.286,166.666c0-3.385,0.319-6.809,0.781-10.228l42.129,8.424
				c-0.033,0.605-0.052,1.205-0.052,1.805c0,18.381,14.957,33.333,33.333,33.333c7.843,0,15.419-2.8,21.39-7.81l31.957,28.595
				c-14.229,14.033-33.376,22.071-53.348,22.071C148.466,242.856,114.286,208.675,114.286,166.666z M61.906,233.333h74.814
				c14.719,11.89,33.41,19.048,53.757,19.048c22.676,0,44.395-9.2,60.448-25.243l8.233,7.367c-1.248,2.533-2.014,5.343-2.014,8.352
				c0,3.486,1.01,6.71,2.648,9.524h-69.314h-0.001H61.906V233.333z M38.096,209.524h14.286v42.857H38.096V209.524z M276.19,285.714
				H19.048v-23.81h9.524h33.333H276.19V285.714z M276.19,252.381c-5.252,0-9.524-4.271-9.524-9.524c0-5.252,4.271-9.524,9.524-9.524
				c5.252,0,9.524,4.271,9.524,9.524S281.443,252.381,276.19,252.381z"/>
		</g>
	</g>
</g>
<g>
</g>
<g>
</g>
<g>
</g>
<g>
</g>
<g>
</g>
<g>
</g>
<g>
</g>
<g>
</g>
<g>
</g>
<g>
</g>
<g>
</g>
<g>
</g>
<g>
</g>
<g>
</g>
<g>
</g>
</svg>
