<?xml version="1.0" encoding="iso-8859-1"?>
<!-- Generator: Adobe Illustrator 19.0.0, SVG Export Plug-In . SVG Version: 6.00 Build 0)  -->
<svg version="1.1" id="Layer_1" xmlns="http://www.w3.org/2000/svg" xmlns:xlink="http://www.w3.org/1999/xlink" x="0px" y="0px"
	 viewBox="0 0 503.607 503.607" style="enable-background:new 0 0 503.607 503.607;" xml:space="preserve">
<g transform="translate(1)">
	<g>
		<g>
			<path d="M460.639,264.446h-83.934c-5.036,0-8.393,3.357-8.393,8.393c0,5.036,3.357,8.393,8.393,8.393h83.934
				c5.036,0,8.393-3.357,8.393-8.393C469.033,267.804,465.675,264.446,460.639,264.446z"/>
			<path d="M460.639,298.02h-67.148c-5.036,0-8.393,3.357-8.393,8.393s3.357,8.393,8.393,8.393h67.148
				c5.036,0,8.393-3.357,8.393-8.393S465.675,298.02,460.639,298.02z"/>
			<path d="M460.639,331.594h-50.361c-5.036,0-8.393,3.357-8.393,8.393c0,5.036,3.357,8.393,8.393,8.393h50.361
				c5.036,0,8.393-3.357,8.393-8.393C469.033,334.951,465.675,331.594,460.639,331.594z"/>
			<path d="M460.639,29.43l-65.336-3.92c-0.581-0.173-1.185-0.277-1.812-0.277L250.803,16.84L40.967,4.25
				C30.056,3.41,19.984,7.607,11.59,15.161C3.197,22.715-1,33.627-1,44.538v68.826c0,11.751,0.839,23.502,1.679,34.413
				l28.538,213.193c2.518,16.787,16.787,29.377,33.574,29.377h36.931v16.787H49.361c-5.036,0-8.393,3.357-8.393,8.393v33.574
				c0,5.036,3.357,8.393,8.393,8.393h50.361v33.574c0,5.036,3.357,8.393,8.393,8.393s8.393-3.357,8.393-8.393v-33.574h285.377
				c5.036,0,8.393-3.357,8.393-8.393v-33.574c0-5.036-3.357-8.393-8.393-8.393h-50.361v-16.787h142.688
				c5.036,0,8.393-3.357,8.393-8.393V71.397C502.607,49.574,484.141,31.109,460.639,29.43z M385.098,42.02
				c-0.839,5.036-2.518,10.072-6.715,13.43c-5.036,4.197-10.911,5.875-16.787,5.875l-224.105-13.43
				c-11.634-0.831-20.786-10.716-20.967-22.316l144.88,8.71L385.098,42.02z M116.508,390.348h67.148v16.787h-67.148V390.348z
				 M57.754,440.709v-16.787h41.967v16.787H57.754z M393.492,440.709H116.508v-16.787h75.541h151.082h50.361V440.709z
				 M334.738,407.135H200.443v-16.787h134.295V407.135z M485.82,372.722H63.63c-8.393,0-15.948-5.875-16.787-14.269L18.305,145.259
				c-1.679-10.072-2.518-20.984-2.518-31.895V44.538c0-6.715,2.518-12.59,7.554-16.787c4.197-4.197,10.072-6.715,15.948-6.715
				c0.839,0,0.839,0,1.679,0l58.754,3.532v1.504c0,20.144,15.948,37.77,36.931,38.61l224.105,13.43c0.839,0,1.679,0,2.518,0
				c10.072,0,19.305-4.197,25.18-10.911c7.354-6.619,11.486-15.171,12.396-24.528l58.948,3.544
				c15.108,0.839,26.02,11.751,26.02,25.18V372.722z"/>
			<path d="M91.328,264.446c-5.036,0-8.393,3.357-8.393,8.393v67.148c0,5.036,3.357,8.393,8.393,8.393h67.148
				c5.036,0,8.393-3.357,8.393-8.393C166.869,302.217,129.098,264.446,91.328,264.446z M99.721,331.594v-49.521
				c22.662,4.197,45.325,26.859,49.521,49.521H99.721z"/>
			<path d="M129.098,214.086h239.213c27.698,0,50.361-22.662,50.361-50.361c0-27.698-22.662-50.361-49.521-50.361l-149.662-9.656
				c-0.712-0.268-1.471-0.417-2.259-0.417l-92.328-5.875c-0.346,0-0.734,0.045-1.137,0.116l-14.81-0.956
				c-6.715,0-12.59,2.518-17.626,6.715c-5.875,4.197-8.393,11.751-8.393,18.466v46.164
				C82.934,193.102,103.918,214.086,129.098,214.086z M208.836,120.079v10.072h-75.541v-15.108L208.836,120.079z M99.721,121.758
				c0-2.518,0.839-5.036,2.518-6.715c1.679-0.839,2.518-1.679,5.036-1.679l9.233,0.594v24.587c0,5.036,3.357,8.393,8.393,8.393
				h92.328c5.036,0,8.393-3.357,7.554-8.393v-17.624l143.528,9.23c18.466,0,33.574,15.108,33.574,33.574
				c0,18.466-15.108,33.574-33.574,33.574H129.098c-15.948,0-29.377-13.43-29.377-29.377V121.758z"/>
		</g>
	</g>
</g>
<g>
</g>
<g>
</g>
<g>
</g>
<g>
</g>
<g>
</g>
<g>
</g>
<g>
</g>
<g>
</g>
<g>
</g>
<g>
</g>
<g>
</g>
<g>
</g>
<g>
</g>
<g>
</g>
<g>
</g>
</svg>
