<?xml version="1.0" encoding="iso-8859-1"?>
<!-- Generator: Adobe Illustrator 19.0.0, SVG Export Plug-In . SVG Version: 6.00 Build 0)  -->
<svg version="1.1" id="Layer_1" xmlns="http://www.w3.org/2000/svg" xmlns:xlink="http://www.w3.org/1999/xlink" x="0px" y="0px"
	 viewBox="0 0 496 496" style="enable-background:new 0 0 496 496;" xml:space="preserve">
<g>
	<g>
		<g>
			<rect x="128" y="224" width="16" height="48"/>
			<path d="M336,0h-8H0v480h16v16h16v-16h272v16h16v-16h8h8h160V0H336z M176,352h112v16H176V352z M160,464H16V16h144V464z M272,464
				h-96v-80h96V464z M320,464h-32v-80h16v-48H176v-88h144V464z M208,232v-72h16v72H208z M240,232v-72h16v72H240z M272,232v-72h16v72
				H272z M320,232h-16v-72h16V232z M320,144H192v88h-16V128h144V144z M288,96v16h-80V96H288z M224,80V64h48v16H224z M320,112h-16V80
				h-16V48h-80v32h-16v32h-16V16h144V112z M336,48h16v32h-16V48z M336,232h16v32h-16V232z M336,400h16v32h-16V400z M480,272h-24
				c-4.416,0-8-3.584-8-8v-32c0-4.416,3.584-8,8-8h24V272z M480,208h-24c-13.232,0-24,10.768-24,24v32c0,13.232,10.768,24,24,24h24
				v176H336v-16h32v-64h-32V280h32v-64h-32V96h32V32h-32V16h144V208z"/>
			<rect x="208" y="400" width="32" height="16"/>
		</g>
	</g>
</g>
<g>
</g>
<g>
</g>
<g>
</g>
<g>
</g>
<g>
</g>
<g>
</g>
<g>
</g>
<g>
</g>
<g>
</g>
<g>
</g>
<g>
</g>
<g>
</g>
<g>
</g>
<g>
</g>
<g>
</g>
</svg>
