<?xml version="1.0" encoding="iso-8859-1"?>
<!-- Generator: Adobe Illustrator 19.0.0, SVG Export Plug-In . SVG Version: 6.00 Build 0)  -->
<svg version="1.1" id="Layer_1" xmlns="http://www.w3.org/2000/svg" xmlns:xlink="http://www.w3.org/1999/xlink" x="0px" y="0px"
	 viewBox="0 0 496 496" style="enable-background:new 0 0 496 496;" xml:space="preserve">
<g>
	<g>
		<g>
			<path d="M176,0h-64H0v144h104v16H0v144h104v16H0v144h112h8v16c0,8.824,7.176,16,16,16h32c8.824,0,16-7.176,16-16v-16h96v16
				c0,8.824,7.176,16,16,16h32c8.824,0,16-7.176,16-16v-16h72v16c0,8.824,7.176,16,16,16h32c8.824,0,16-7.176,16-16v-16h16V0H176z
				 M16,128V16h96h48v112H16z M16,288V176h144v112H16z M112,448H16V336h144v112H112z M168,480h-32v-16h32V480z M264,448h-88v-80h88
				V448z M264,352h-88v-32h-56v-16h48h8h88V352z M264,288h-88v-80h88V288z M264,192h-88v-32h-56v-16h48h8h88V192z M264,128h-88V48
				h88V128z M264,32h-88V16h88V32z M328,480h-32v-16h32V480z M464,480h-32v-16h32V480z M480,448H280V16h200V448z"/>
			<rect x="48" y="56" width="80" height="16"/>
			<rect x="48" y="216" width="80" height="16"/>
			<rect x="48" y="376" width="80" height="16"/>
		</g>
	</g>
</g>
<g>
</g>
<g>
</g>
<g>
</g>
<g>
</g>
<g>
</g>
<g>
</g>
<g>
</g>
<g>
</g>
<g>
</g>
<g>
</g>
<g>
</g>
<g>
</g>
<g>
</g>
<g>
</g>
<g>
</g>
</svg>
