<?xml version="1.0" encoding="iso-8859-1"?>
<!-- Generator: Adobe Illustrator 18.0.0, SVG Export Plug-In . SVG Version: 6.00 Build 0)  -->
<!DOCTYPE svg PUBLIC "-//W3C//DTD SVG 1.1//EN" "http://www.w3.org/Graphics/SVG/1.1/DTD/svg11.dtd">
<svg version="1.1" id="Capa_1" xmlns="http://www.w3.org/2000/svg" xmlns:xlink="http://www.w3.org/1999/xlink" x="0px" y="0px"
	 viewBox="0 0 423.979 423.979" style="enable-background:new 0 0 423.979 423.979;" xml:space="preserve">
<path d="M398.98,46.65v60.742h-81.581V46.65H292.4v60.742H136.714c12.273-4.9,23.54-12.286,33.166-21.912l2.475-2.475l-2.475-2.475
	c-18.645-18.644-43.434-28.912-69.801-28.912c-26.368,0-51.157,10.268-69.801,28.912l-2.475,2.475l2.475,2.475
	c9.626,9.626,20.893,17.012,33.166,21.912H24.999V46.65H0v330.678h24.999v-63.496H292.4v63.496h24.999v-22.193h81.581v22.193h24.999
	V46.65H398.98z M398.98,175.823h-81.581v-24.68h81.581V175.823z M317.399,277.093h81.58v29.74h-81.58V277.093z M317.399,313.833
	h81.581v20.303h-81.581V313.833z M398.98,270.093h-81.581v-21.937h81.581V270.093z M398.98,241.156h-81.581v-7h81.581V241.156z
	 M317.399,227.156v-30.333h81.581v30.333H317.399z M398.98,189.823h-81.581v-7h81.581V189.823z M398.979,114.393v29.75h-81.58
	v-29.75H398.979z M37.798,83.005c16.998-15.753,38.976-24.387,62.281-24.387c23.304,0,45.282,8.634,62.28,24.387
	c-16.998,15.753-38.976,24.387-62.28,24.387C76.774,107.393,54.796,98.759,37.798,83.005z M292.4,114.393v29.75H24.999v-29.75H292.4
	z M169.88,248.18l2.475-2.475l-2.475-2.475c-18.645-18.644-43.434-28.912-69.801-28.912c-26.368,0-51.157,10.268-69.801,28.913
	l-2.475,2.475l2.475,2.475c9.626,9.626,20.893,17.012,33.166,21.912H24.999v-118.95H292.4v118.95H136.713
	C148.987,265.193,160.254,257.806,169.88,248.18z M100.079,270.093c-23.305,0-45.283-8.634-62.281-24.388
	c16.998-15.753,38.976-24.387,62.281-24.387c23.304,0,45.282,8.634,62.28,24.388C145.361,261.459,123.383,270.093,100.079,270.093z
	 M17.999,370.329H7V53.65h10.999V370.329z M24.999,306.833v-29.74H292.4v29.74H24.999z M310.399,370.329H299.4V53.65h10.999V370.329
	z M317.399,348.136v-7h81.581v7H317.399z M416.979,370.329H405.98V53.65h10.999V370.329z"/>
<g>
</g>
<g>
</g>
<g>
</g>
<g>
</g>
<g>
</g>
<g>
</g>
<g>
</g>
<g>
</g>
<g>
</g>
<g>
</g>
<g>
</g>
<g>
</g>
<g>
</g>
<g>
</g>
<g>
</g>
</svg>
