<?xml version="1.0" encoding="iso-8859-1"?>
<!-- Generator: Adobe Illustrator 18.0.0, SVG Export Plug-In . SVG Version: 6.00 Build 0)  -->
<!DOCTYPE svg PUBLIC "-//W3C//DTD SVG 1.1//EN" "http://www.w3.org/Graphics/SVG/1.1/DTD/svg11.dtd">
<svg version="1.1" id="Capa_1" xmlns="http://www.w3.org/2000/svg" xmlns:xlink="http://www.w3.org/1999/xlink" x="0px" y="0px"
	 viewBox="0 0 414.447 414.447" style="enable-background:new 0 0 414.447 414.447;" xml:space="preserve">
<path d="M414.447,52.227h-3.5H3.5H0v297h12.999v12.993h388.45v-12.993h12.999V52.227z M219.94,342.227v-29.25h15.436
	c2.494,7.676,9.779,13.16,18.064,13.16s15.571-5.484,18.064-13.16h15.436v29.25H219.94z M161.375,312.977
	c2.494,7.676,9.779,13.16,18.064,13.16s15.571-5.484,18.064-13.16h15.436v29.25h-67v-29.25H161.375z M168.965,312.977h20.951
	c-2.075,3.689-6.052,6.16-10.475,6.16S171.04,316.667,168.965,312.977z M242.965,312.977h20.951
	c-2.075,3.689-6.052,6.16-10.475,6.16S245.04,316.667,242.965,312.977z M145.94,305.977v-188.09h38.678
	c-0.728,1.555-1.147,3.282-1.147,5.11h7c0-2.817,2.292-5.11,5.11-5.11h0.615c2.479,0,4.495,2.016,4.495,4.495
	s-2.017,4.495-4.495,4.495h-6.165v11.415c-5.942,0.384-11.839,1.883-17.22,4.41l-16.262,7.639c-3.843,1.806-5.804,5.803-4.879,9.948
	c0.925,4.144,4.399,6.928,8.645,6.928h34.208h31.27h34.208c4.246,0,7.721-2.784,8.646-6.929c0.925-4.144-1.036-8.142-4.879-9.947
	l-16.263-7.639c-5.092-2.392-10.648-3.853-16.266-4.33v-4.524c5.95-0.43,10.66-5.408,10.66-11.465c0-1.594-0.327-3.113-0.917-4.495
	h45.957v188.09H145.94z M212.94,88.477h-67v-29.25h67V88.477z M219.94,59.227h67v29.25h-67V59.227z M286.94,95.477v15.41h-141
	v-15.41H286.94z M407.447,110.887H293.94v-15.41h113.507V110.887z M234.9,122.382c0,2.479-2.016,4.495-4.495,4.495h-6.165v11.415
	c-4.808,0.311-9.582,1.362-14.081,3.089c-4.201-1.613-8.642-2.629-13.127-3.01v-4.524c5.95-0.43,10.66-5.408,10.66-11.465
	c0-1.594-0.327-3.113-0.917-4.495h12.051c-0.728,1.555-1.147,3.282-1.147,5.11h7c0-2.817,2.292-5.11,5.11-5.11h0.615
	C232.884,117.887,234.9,119.903,234.9,122.382z M193.055,145.184c2.426,0,4.856,0.235,7.252,0.671l-9.549,4.485
	c-3.821,1.795-5.779,5.757-4.892,9.876h-25.55c-1.344,0-1.716-1.016-1.813-1.453c-0.098-0.437-0.193-1.516,1.023-2.087l16.262-7.639
	C181.155,146.516,187.126,145.184,193.055,145.184z M192.711,158.763c-0.098-0.437-0.193-1.516,1.024-2.087l16.262-7.639
	c0.053-0.025,0.109-0.046,0.163-0.071c0.054,0.025,0.109,0.046,0.163,0.071l16.262,7.639c1.217,0.571,1.121,1.65,1.023,2.087
	c-0.097,0.437-0.469,1.453-1.813,1.453h-31.27C193.18,160.216,192.809,159.2,192.711,158.763z M229.561,150.34l-9.549-4.485
	c2.396-0.436,4.826-0.671,7.252-0.671c5.929,0,11.9,1.333,17.267,3.854l16.262,7.639c1.217,0.571,1.121,1.649,1.023,2.086
	s-0.469,1.454-1.813,1.454h-25.55C235.339,156.097,233.382,152.135,229.561,150.34z M138.94,278.79H7v-20.188h47.905
	c2.494,7.676,9.78,13.16,18.064,13.16s15.571-5.484,18.065-13.16h47.905V278.79z M83.445,285.79
	c-2.075,3.689-6.052,6.16-10.476,6.16s-8.4-2.47-10.475-6.16H83.445z M62.494,258.602h20.951c-2.075,3.69-6.052,6.16-10.476,6.16
	S64.569,262.292,62.494,258.602z M138.94,251.602H7v-20.188h47.905c2.494,7.676,9.78,13.16,18.064,13.16s15.571-5.484,18.065-13.16
	h47.905V251.602z M62.494,231.414h20.951c-2.075,3.69-6.052,6.16-10.476,6.16S64.569,235.104,62.494,231.414z M138.94,224.414H7
	v-20.188h47.905c2.494,7.676,9.78,13.16,18.064,13.16s15.571-5.484,18.065-13.16h47.905V224.414z M62.494,204.227h20.951
	c-2.075,3.69-6.052,6.16-10.476,6.16S64.569,207.917,62.494,204.227z M138.94,197.227H7v-29.25h131.94V197.227z M138.94,160.977H7
	v-29.25h131.94V160.977z M138.94,124.727H7v-29.25h131.94V124.727z M7,285.79h47.905c2.494,7.676,9.78,13.16,18.064,13.16
	c8.285,0,15.571-5.484,18.065-13.16h47.905v20.188H7V285.79z M293.94,276.727h113.507v29.25H293.94V276.727z M293.94,269.727v-29.25
	h113.507v29.25H293.94z M293.94,233.477v-5.59h113.507v5.59H293.94z M293.94,220.887v-103h52.921
	c-0.728,1.555-1.147,3.282-1.147,5.11h7c0-2.817,2.292-5.11,5.11-5.11h0.615c2.479,0,4.495,2.016,4.495,4.495
	s-2.017,4.495-4.495,4.495h-6.165v11.415c-5.942,0.384-11.839,1.883-17.22,4.41l-16.262,7.639c-3.843,1.806-5.804,5.803-4.879,9.947
	c0.925,4.145,4.399,6.929,8.646,6.929h65.478c4.246,0,7.72-2.784,8.645-6.928c0.925-4.145-1.036-8.142-4.879-9.948l-16.263-7.639
	c-5.092-2.392-10.648-3.853-16.266-4.33v-4.524c5.95-0.43,10.66-5.408,10.66-11.465c0-1.594-0.327-3.113-0.917-4.495h38.429v103
	H293.94z M355.298,145.184c5.929,0,11.9,1.333,17.267,3.854l16.262,7.639c1.217,0.571,1.121,1.65,1.024,2.087
	c-0.098,0.437-0.47,1.453-1.813,1.453H322.56c-1.344,0-1.716-1.017-1.813-1.454s-0.193-1.515,1.023-2.086l16.262-7.639
	C343.398,146.516,349.369,145.184,355.298,145.184z M407.447,88.477H293.94v-29.25h113.507V88.477z M138.94,59.227v29.25H7v-29.25
	H138.94z M7,342.227v-29.25h131.94v29.25H7z M394.449,355.22H19.999v-5.993h374.45V355.22z M293.94,342.227v-29.25h113.507v29.25
	H293.94z"/>
<g>
</g>
<g>
</g>
<g>
</g>
<g>
</g>
<g>
</g>
<g>
</g>
<g>
</g>
<g>
</g>
<g>
</g>
<g>
</g>
<g>
</g>
<g>
</g>
<g>
</g>
<g>
</g>
<g>
</g>
</svg>
