<?xml version="1.0" encoding="iso-8859-1"?>
<!-- Generator: Adobe Illustrator 19.0.0, SVG Export Plug-In . SVG Version: 6.00 Build 0)  -->
<svg version="1.1" id="Layer_1" xmlns="http://www.w3.org/2000/svg" xmlns:xlink="http://www.w3.org/1999/xlink" x="0px" y="0px"
	 viewBox="0 0 512 512" style="enable-background:new 0 0 512 512;" xml:space="preserve">
<g>
	<g>
		<g>
			<path d="M320,287.996c0-5.891-4.781-10.656-10.672-10.656h-42.672c-5.891,0-10.656,4.766-10.656,10.656h-21.344
				c0-5.891-4.766-10.656-10.656-10.656h-42.672c-5.891,0-10.672,4.766-10.672,10.656H160H0V501.34h160h21.328H320h21.328H512
				V287.996H341.328H320z M160,479.996H21.328V309.34H160V479.996z M320,479.996H181.328v-128H320V479.996z M320,330.653H181.328
				V309.34H192c0,5.875,4.766,10.656,10.656,10.656s10.672-4.781,10.672-10.656H224c0,5.875,4.766,10.656,10.656,10.656
				s10.672-4.781,10.672-10.656H256c0,5.875,4.766,10.656,10.656,10.656c5.891,0,10.672-4.781,10.672-10.656H288
				c0,5.875,4.766,10.656,10.656,10.656s10.672-4.781,10.672-10.656H320V330.653z M490.656,479.996H341.328V309.34h149.328V479.996z
				"/>
			<path d="M362.656,10.66v192H512v-192H362.656z M490.656,181.332H384V31.996h106.656V181.332z"/>
			<path d="M149.328,10.66H0v192h149.328V10.66z M128,181.332H21.328V31.996H128V181.332z"/>
			<path d="M202.656,383.996h96c5.891,0,10.672-4.781,10.672-10.656c0-5.906-4.781-10.688-10.672-10.688h-96
				c-5.891,0-10.656,4.781-10.656,10.688C192,379.215,196.766,383.996,202.656,383.996z"/>
			<path d="M181.328,159.996h149.328c5.891,0,10.672-4.773,10.672-10.664V95.996c0-5.891-4.781-10.664-10.672-10.664H320V10.66H192
				v74.672h-10.672c-5.891,0-10.672,4.773-10.672,10.664v53.336C170.656,155.223,175.438,159.996,181.328,159.996z M213.328,31.996
				h85.328v53.336h-85.328V31.996z M192,106.66h128v32h-21.344c0-5.891-4.766-10.664-10.656-10.664s-10.672,4.773-10.672,10.664
				h-10.672c0-5.891-4.766-10.664-10.656-10.664s-10.672,4.773-10.672,10.664h-10.672c0-5.891-4.766-10.664-10.656-10.664
				s-10.672,4.773-10.672,10.664H192V106.66z"/>
			<path d="M362.656,415.996c5.891,0,10.672-4.781,10.672-10.656v-21.344c0-5.891-4.781-10.656-10.672-10.656
				S352,378.105,352,383.996v21.344C352,411.215,356.766,415.996,362.656,415.996z"/>
			<path d="M42.656,415.996c5.89,0,10.672-4.781,10.672-10.656v-21.344c0-5.891-4.781-10.656-10.672-10.656S32,378.106,32,383.996
				v21.344C32,411.215,36.766,415.996,42.656,415.996z"/>
			<path d="M42.656,127.996c5.891,0,10.672-4.773,10.672-10.664V95.996c0-5.891-4.781-10.664-10.672-10.664S32,90.105,32,95.996
				v21.336C32,123.223,36.766,127.996,42.656,127.996z"/>
			<path d="M405.328,127.996c5.891,0,10.672-4.773,10.672-10.664V95.996c0-5.891-4.781-10.664-10.672-10.664
				s-10.672,4.773-10.672,10.664v21.336C394.656,123.223,399.438,127.996,405.328,127.996z"/>
			<path d="M229.5,211.028c-0.281-4.586-2.203-11.242-9.781-16.906c-0.781-0.586-1.141-1.031-1.266-1.219
				c0.063-0.844,1.234-2.828,2.359-3.977l-0.094,0.094v-0.008c2.016-1.938,3.281-4.664,3.281-7.68
				c0-5.891-4.781-10.672-10.672-10.672c-2.875,0-5.469,1.141-7.391,2.984c-1.594,1.523-9.453,9.68-8.781,20.656
				c0.281,4.586,2.219,11.242,9.781,16.906c0.781,0.586,1.156,1.031,1.266,1.219c-0.063,0.844-1.234,2.828-2.359,3.969l0.094-0.086
				v0.008c-2.016,1.938-3.281,4.656-3.281,7.68c0,5.891,4.782,10.664,10.672,10.664c2.875,0,5.469-1.141,7.391-2.984v0.008
				C222.313,230.161,230.188,222.004,229.5,211.028z"/>
			<path d="M272.172,211.028c-0.281-4.586-2.219-11.242-9.781-16.906c-0.781-0.586-1.156-1.031-1.266-1.219
				c0.063-0.844,1.234-2.828,2.359-3.977l-0.094,0.094v-0.008c2.016-1.938,3.266-4.664,3.266-7.68
				c0-5.891-4.766-10.672-10.656-10.672c-2.875,0-5.469,1.141-7.391,2.984c-1.594,1.523-9.469,9.68-8.781,20.656
				c0.281,4.586,2.203,11.242,9.781,16.906c0.781,0.586,1.141,1.031,1.266,1.219c-0.063,0.844-1.234,2.828-2.359,3.969l0.094-0.086
				v0.008c-2.016,1.938-3.281,4.656-3.281,7.68c-0.001,5.891,4.78,10.664,10.671,10.664c2.859,0,5.469-1.141,7.391-2.984v0.008
				C264.969,230.161,272.844,222.004,272.172,211.028z"/>
			<path d="M298.656,234.66c2.875,0,5.484-1.141,7.391-2.984l0.016,0.008c1.578-1.523,9.453-9.68,8.766-20.656
				c-0.281-4.586-2.203-11.242-9.781-16.906c-0.781-0.586-1.141-1.031-1.266-1.219c0.061-0.823,1.177-2.726,2.276-3.885
				l-0.011-0.006c2.016-1.938,3.281-4.664,3.281-7.68c0-5.891-4.781-10.672-10.672-10.672c-2.859,0-5.469,1.141-7.375,2.984h-0.016
				c-1.578,1.523-9.453,9.68-8.781,20.656c0.297,4.586,2.219,11.242,9.797,16.906c0.781,0.586,1.141,1.031,1.266,1.219
				c-0.063,0.844-1.234,2.828-2.375,3.969l0.094-0.086l0.016,0.008c-2.031,1.938-3.281,4.656-3.281,7.68
				C288,229.887,292.766,234.66,298.656,234.66z"/>
			<path d="M306.141,188.926c-0.028,0.028-0.055,0.062-0.083,0.092l0.005,0.002L306.141,188.926z"/>
		</g>
	</g>
</g>
<g>
</g>
<g>
</g>
<g>
</g>
<g>
</g>
<g>
</g>
<g>
</g>
<g>
</g>
<g>
</g>
<g>
</g>
<g>
</g>
<g>
</g>
<g>
</g>
<g>
</g>
<g>
</g>
<g>
</g>
</svg>
