<?xml version="1.0" encoding="UTF-8" standalone="no"?>
<!-- Created with Inkscape (http://www.inkscape.org/) -->
<svg xmlns:dc="http://purl.org/dc/elements/1.1/" xmlns:cc="http://creativecommons.org/ns#" xmlns:rdf="http://www.w3.org/1999/02/22-rdf-syntax-ns#" xmlns:svg="http://www.w3.org/2000/svg" xmlns="http://www.w3.org/2000/svg" xmlns:xlink="http://www.w3.org/1999/xlink" version="1.1" width="300" height="165" id="svg3052" style="display:inline;background:#e11b1c">
  <defs id="defs3056">
    <linearGradient id="linearGradient5381">
      <stop id="stop5383" style="stop-color:#920003;stop-opacity:1" offset="0"/>
      <stop id="stop5385" style="stop-color:#ff6053;stop-opacity:1" offset="1"/>
    </linearGradient>
    <linearGradient id="linearGradient5369">
      <stop id="stop5371" style="stop-color:#ffffff;stop-opacity:1" offset="0"/>
      <stop id="stop5373" style="stop-color:#ffffff;stop-opacity:1" offset="0.14536391"/>
      <stop id="stop5395" style="stop-color:#cfcfcf;stop-opacity:1" offset="0.4280619"/>
      <stop id="stop5375" style="stop-color:#9f9f9f;stop-opacity:1" offset="0.67664796"/>
      <stop id="stop5393" style="stop-color:#a0a0a0;stop-opacity:1" offset="1"/>
      <stop id="stop5379" style="stop-color:#ffffff;stop-opacity:1" offset="1"/>
    </linearGradient>
    <linearGradient id="linearGradient5349">
      <stop id="stop5351" style="stop-color:#ffffff;stop-opacity:1" offset="0"/>
      <stop id="stop5357" style="stop-color:#ffffff;stop-opacity:1" offset="0.29761755"/>
      <stop id="stop5361" style="stop-color:#828282;stop-opacity:1" offset="0.7017433"/>
      <stop id="stop5363" style="stop-color:#ffffff;stop-opacity:1" offset="0.97902763"/>
      <stop id="stop5353" style="stop-color:#ffffff;stop-opacity:1" offset="1"/>
    </linearGradient>
    <linearGradient id="linearGradient5318">
      <stop id="stop5320" style="stop-color:#f4aaa1;stop-opacity:1" offset="0"/>
      <stop id="stop5326" style="stop-color:#e11b1c;stop-opacity:1" offset="0.5"/>
      <stop id="stop5322" style="stop-color:#a10c11;stop-opacity:1" offset="1"/>
    </linearGradient>
    <linearGradient id="linearGradient5299">
      <stop id="stop5301" style="stop-color:#ff6053;stop-opacity:1" offset="0"/>
      <stop id="stop5303" style="stop-color:#920003;stop-opacity:1" offset="1"/>
    </linearGradient>
    <linearGradient id="linearGradient3837">
      <stop id="stop3839" style="stop-color:#690505;stop-opacity:1" offset="0"/>
      <stop id="stop3841" style="stop-color:#690505;stop-opacity:0" offset="1"/>
    </linearGradient>
    <linearGradient x1="68.63665" y1="58.357822" x2="99.953659" y2="89.686066" id="linearGradient5305" xlink:href="#linearGradient5299" gradientUnits="userSpaceOnUse" gradientTransform="matrix(0.975,0,0,0.975,6.4770972,2.3669038)"/>
    <linearGradient x1="74.906548" y1="60.925301" x2="115.089" y2="101.39719" id="linearGradient5324" xlink:href="#linearGradient5318" gradientUnits="userSpaceOnUse"/>
    <linearGradient x1="84.505424" y1="64.603516" x2="114.52219" y2="106.65604" id="linearGradient5387" xlink:href="#linearGradient5381" gradientUnits="userSpaceOnUse"/>
    <radialGradient cx="91.559654" cy="79.478302" r="15.54851" fx="91.559654" fy="79.478302" id="radialGradient5389" xlink:href="#linearGradient5369" gradientUnits="userSpaceOnUse" gradientTransform="matrix(2.1398412,-3.3679975e-7,3.697668e-7,2.3492958,-105.75603,-112.37122)"/>
  </defs>
  <g id="layer1" style="display:inline">
    <rect width="53.115547" height="53.115547" ry="2.925" x="73.287178" y="59.265785" id="rect3067" style="fill:url(#linearGradient5305);fill-opacity:1;stroke:none"/>
  </g>
  <g id="layer2" style="display:inline">
    <rect width="49.143234" height="49.143234" ry="2" x="74.906548" y="60.925301" id="rect5308" style="fill:url(#linearGradient5324);fill-opacity:1;stroke:none"/>
  </g>
  <g id="layer3" style="display:inline">
    <path d="m 99.449789,64.523346 c -6.976396,0.0032 -15.14506,12.508308 -15.038057,24.974261 -0.02675,7.945039 4.070158,16.728893 15.038057,16.889393 11.424891,-0.22489 15.119241,-8.967041 15.042751,-16.889393 0.0253,-12.883431 -8.37032,-25.06644 -15.042751,-24.974261 z" id="path5337" style="fill:url(#radialGradient5389);fill-opacity:1;stroke:url(#linearGradient5387)"/>
  </g>
  <g id="layer4">
    <path d="m 139.99579,99.002797 2.04291,-26.047049 6.92318,0 7.09342,14.584077 6.97993,-14.584077 6.92318,0 2.04291,26.047049 -8.00138,0 -1.02146,-12.995151 -4.88027,11.008992 -4.14256,-0.05675 -5.84498,-10.952245 -1.02145,12.995151 z" id="path5431" style="fill:#ffffff;fill-opacity:1;stroke:none;display:inline"/>
    <path d="m 183.01031,99.002794 0,-20.031826 -8.05813,0 0,-6.015223 24.00414,0 0,6.015223 -7.88788,0 0,20.031826 z" id="path5461" style="fill:#ffffff;fill-opacity:1;stroke:none"/>
    <path d="m 220.97431,73.855744 c -1.63422,-0.880234 -3.7769,-0.899999 -6.01522,-0.899999 -8.13072,0 -13.33564,0.899999 -13.33564,6.511762 l 0,13.076465 c 0,6.545591 5.21485,6.456836 13.33564,6.458822 2.07772,0.05294 4.90304,0.0223 6.01522,-0.847058 l 0,-5.611764 c -1.26237,0.679946 -2.96825,0.741177 -6.01522,0.741177 -3.24824,0 -6.01523,-0.741177 -6.01523,-3.997057 l 0,-7.226469 c 0,-2.594116 2.51649,-3.547057 6.01523,-3.547057 2.85629,0 4.07228,-0.09357 6.01522,0.952941 z" id="path5473" style="fill:#ffffff;fill-opacity:1;stroke:none"/>
  </g>
</svg>