<?xml version="1.0" encoding="iso-8859-1"?>
<!-- Generator: Adobe Illustrator 19.0.0, SVG Export Plug-In . SVG Version: 6.00 Build 0)  -->
<svg version="1.1" id="Layer_1" xmlns="http://www.w3.org/2000/svg" xmlns:xlink="http://www.w3.org/1999/xlink" x="0px" y="0px"
	 viewBox="0 0 496 496" style="enable-background:new 0 0 496 496;" xml:space="preserve">
<g>
	<g>
		<g>
			<path d="M424,40H112v16H96V40H36.688L0,76.688v38.624L36.688,152H96v-16h16v8v8v48H96v16h16v152c0,13.232,10.768,24,24,24h32
				c13.232,0,24-10.768,24-24V216h16v-16h-16v-23.36L221.192,200h12.168L256,320.744V384c0,13.232,10.768,24,24,24h80
				c13.232,0,24-10.768,24-24v-56h64v24h16v104h16V352h16V112C496,72.304,463.704,40,424,40z M32,124.688l-16-16V83.312l16-16
				V124.688z M80,136H48V56h32V136z M112,120H96V72h16V120z M176,368c0,4.408-3.584,8-8,8h-32c-4.416,0-8-3.592-8-8V216h48V368z
				 M176,160v3.84V200h-48v-48h48V160z M267.528,296H312v-16h-47.456l-2.984-16H304v-16h-45.424l-2.984-16H296v-16h-43.392
				l-2.984-16h49.44c3.752,0,7.04,2.664,7.832,6.328L328,304.848V312h-57.488L267.528,296z M480,336h-16v-24h-80
				c-8.824,0-16,7.176-16,16v56c0,4.408-3.584,8-8,8h-80c-4.416,0-8-3.592-8-8v-56h72v-24l-21.472-101.024
				C320.176,191.984,310.312,184,299.064,184H246.64H240h-13.192L192,156.16V136h-64V56h296c30.872,0,56,25.12,56,56V336z"/>
			<path d="M256,72c-26.472,0-48,21.528-48,48s21.528,48,48,48s48-21.528,48-48S282.472,72,256,72z M256,152
				c-17.648,0-32-14.352-32-32s14.352-32,32-32s32,14.352,32,32S273.648,152,256,152z"/>
			<path d="M410.504,96h-45C349.232,96,336,109.232,336,125.504c0,2.248,0.264,4.512,0.784,6.76l27.528,116.992
				c3.152,13.392,14.952,22.744,28.72,22.744h17.472C426.768,272,440,258.768,440,242.504v-117C440,109.232,426.768,96,410.504,96z
				 M424,242.504c0,7.44-6.056,13.496-13.496,13.496h-17.472c-6.296,0-11.704-4.28-13.144-10.408L352.36,128.616
				c-0.232-1.04-0.36-2.088-0.36-3.112c0-7.448,6.056-13.504,13.504-13.504h45c7.44,0,13.496,6.056,13.496,13.504V242.504z"/>
		</g>
	</g>
</g>
<g>
</g>
<g>
</g>
<g>
</g>
<g>
</g>
<g>
</g>
<g>
</g>
<g>
</g>
<g>
</g>
<g>
</g>
<g>
</g>
<g>
</g>
<g>
</g>
<g>
</g>
<g>
</g>
<g>
</g>
</svg>
