<?xml version="1.0" encoding="iso-8859-1"?>
<!-- Generator: Adobe Illustrator 19.0.0, SVG Export Plug-In . SVG Version: 6.00 Build 0)  -->
<svg version="1.1" id="Layer_1" xmlns="http://www.w3.org/2000/svg" xmlns:xlink="http://www.w3.org/1999/xlink" x="0px" y="0px"
	 viewBox="0 0 511.998 511.998" style="enable-background:new 0 0 511.998 511.998;" xml:space="preserve">
<g>
	<g>
		<path d="M447.997,65.649v38.265l-26.094-11.703c-2.25-1.016-4.656-1.531-7.124-1.531c-6.844,0-13.094,4.047-15.875,10.296
			l-3.312,7.344h-50.155l-11.844-38.484c-1.734-5.625-7.703-8.781-13.344-7.047l-142.703,43.968
			c-1.141,0.344-2.203,0.891-3.125,1.562H64v-42.67H0v384.005h42.656H64h274.905c0.062,0.016,0.125,0.016,0.188,0.031
			c0.156,0,0.328,0,0.5,0c0.188,0,0.391-0.016,0.594-0.031h107.811h21.328h42.672V65.649H447.997z M409.403,129.649h38.593v26.719
			l-35.843,79.952h-13.594l36.296-80.968c2.423-5.375,0.017-11.687-5.358-14.094c-5.375-2.406-11.688,0-14.093,5.375l-40.219,89.687
			h-13.594L409.403,129.649z M447.997,208.523v27.796h-12.469L447.997,208.523z M345.374,144.337
			c2.719-0.828,4.969-2.703,6.297-5.203c1.327-2.5,1.608-5.422,0.765-8.125l-0.406-1.359h33.999L339.78,232.804
			c-0.5,1.141-0.875,2.312-1.141,3.516h-9.578l-24.453-79.421L345.374,144.337z M306.748,236.32h-44.64l-18.672-60.578
			l40.781-12.562L306.748,236.32z M316.343,86.321l6.781,22h-78.203L316.343,86.321z M191.062,129.649h129.531L190.14,169.836
			L191.062,129.649z M42.657,236.32v192.006H21.329V86.993h21.328V236.32z M63.999,171.947v-42.296h105.719l-1.25,54.498
			c-0.062,3.422,1.5,6.688,4.25,8.75c1.875,1.422,4.125,2.156,6.422,2.156c1.047,0,2.109-0.156,3.141-0.469l40.781-12.562
			l16.718,54.296h-70.031c0.469-6.609,0.062-14.109-1.281-22.468c-1.688-10.609-4.844-22.453-9.125-34.25
			c-3.906-10.75-8.562-21-13.156-28.843c-6.188-10.562-11.562-15.984-17.469-17.562c-1.281-0.344-2.656-0.531-4.094-0.531
			c-15.328,0-42.218,22.469-47.437,26.969C72.187,163.931,67.812,168.041,63.999,171.947z M107.969,210.633
			c-5.688-1.531-11.531,1.859-13.062,7.547l-4.844,18.14H64v-30.671c5.562-8.828,14.656-19,26.094-28.969
			c15.031-13.125,27.687-20.312,32.937-22.203c3.594,4.25,10.938,16.812,17.406,35.703c6.312,18.359,9.125,35.078,7.906,46.14
			H112.14l3.391-12.625C117.047,218.008,113.656,212.148,107.969,210.633z M447.997,428.326h-95.249
			c0.703-1.984,1.625-4.062,2.781-6.125c5.781-10.234,15.094-15.203,28.469-15.203h63.999V428.326z M447.997,279h-31.999
			c-5.906,0-10.672,4.766-10.672,10.654c0,5.891,4.766,10.672,10.672,10.672h31.999v85.328h-63.999
			c-27.188,0-40.843,14.641-47.515,26.906c-3.078,5.656-4.891,11.234-5.984,15.766H64v-21.328h10.656
			c5.891,0,10.672-4.781,10.672-10.672s-4.781-10.672-10.672-10.672H64v-64h53.328c5.891,0,10.672-4.766,10.672-10.656
			s-4.781-10.672-10.672-10.672H64v-42.678h383.997V279z M490.653,428.326h-21.328V236.32V86.993h21.328V428.326z"/>
	</g>
</g>
<g>
</g>
<g>
</g>
<g>
</g>
<g>
</g>
<g>
</g>
<g>
</g>
<g>
</g>
<g>
</g>
<g>
</g>
<g>
</g>
<g>
</g>
<g>
</g>
<g>
</g>
<g>
</g>
<g>
</g>
</svg>
